%TF.GenerationSoftware,KiCad,Pcbnew,7.0.2*%
%TF.CreationDate,2023-06-01T20:05:19-06:00*%
%TF.ProjectId,ArmchairBarf,41726d63-6861-4697-9242-6172662e6b69,rev?*%
%TF.SameCoordinates,Original*%
%TF.FileFunction,Drillmap*%
%TF.FilePolarity,Positive*%
%FSLAX45Y45*%
G04 Gerber Fmt 4.5, Leading zero omitted, Abs format (unit mm)*
G04 Created by KiCad (PCBNEW 7.0.2) date 2023-06-01 20:05:19*
%MOMM*%
%LPD*%
G01*
G04 APERTURE LIST*
%ADD10C,0.100000*%
%ADD11C,0.200000*%
%ADD12C,0.040000*%
%ADD13C,0.110000*%
G04 APERTURE END LIST*
D10*
X16764000Y-10668000D02*
X16510000Y-10414000D01*
X15494000Y-8636000D02*
X15240000Y-8636000D01*
X18542000Y-8890000D02*
X18288000Y-8636000D01*
X15494000Y-10414000D02*
X16002000Y-10414000D01*
X15240000Y-10160000D02*
X15494000Y-10414000D01*
X18288000Y-8636000D02*
X18034000Y-8636000D01*
X16764000Y-10668000D02*
X18288000Y-10668000D01*
X16002000Y-10414000D02*
X16510000Y-10414000D01*
X15240000Y-9906000D02*
X15240000Y-10160000D01*
X15240000Y-8636000D02*
X15240000Y-9906000D01*
X18034000Y-8636000D02*
X15494000Y-8636000D01*
X18542000Y-10414000D02*
X18542000Y-8890000D01*
X18288000Y-10668000D02*
X18542000Y-10414000D01*
D11*
D12*
X16490000Y-8870000D02*
X16530000Y-8910000D01*
X16530000Y-8870000D02*
X16490000Y-8910000D01*
X16490000Y-10140000D02*
X16530000Y-10180000D01*
X16530000Y-10140000D02*
X16490000Y-10180000D01*
X16660950Y-9040950D02*
X16700950Y-9080950D01*
X16700950Y-9040950D02*
X16660950Y-9080950D01*
X16744000Y-9378000D02*
X16784000Y-9418000D01*
X16784000Y-9378000D02*
X16744000Y-9418000D01*
X16744000Y-9632000D02*
X16784000Y-9672000D01*
X16784000Y-9632000D02*
X16744000Y-9672000D01*
X16744000Y-9813550D02*
X16784000Y-9853550D01*
X16784000Y-9813550D02*
X16744000Y-9853550D01*
X16744000Y-10140000D02*
X16784000Y-10180000D01*
X16784000Y-10140000D02*
X16744000Y-10180000D01*
X17248540Y-9632000D02*
X17288540Y-9672000D01*
X17288540Y-9632000D02*
X17248540Y-9672000D01*
X17252000Y-9378000D02*
X17292000Y-9418000D01*
X17292000Y-9378000D02*
X17252000Y-9418000D01*
X17506000Y-9958450D02*
X17546000Y-9998450D01*
X17546000Y-9958450D02*
X17506000Y-9998450D01*
X18268000Y-9886000D02*
X18308000Y-9926000D01*
X18308000Y-9886000D02*
X18268000Y-9926000D01*
D13*
X15549000Y-8938000D02*
G75*
G03*
X15549000Y-8938000I-55000J0D01*
G01*
X15549000Y-9398000D02*
G75*
G03*
X15549000Y-9398000I-55000J0D01*
G01*
X15549000Y-9858000D02*
G75*
G03*
X15549000Y-9858000I-55000J0D01*
G01*
D11*
X15482619Y-10985524D02*
X15482619Y-10785524D01*
X15482619Y-10785524D02*
X15530238Y-10785524D01*
X15530238Y-10785524D02*
X15558809Y-10795048D01*
X15558809Y-10795048D02*
X15577857Y-10814095D01*
X15577857Y-10814095D02*
X15587381Y-10833143D01*
X15587381Y-10833143D02*
X15596905Y-10871238D01*
X15596905Y-10871238D02*
X15596905Y-10899810D01*
X15596905Y-10899810D02*
X15587381Y-10937905D01*
X15587381Y-10937905D02*
X15577857Y-10956952D01*
X15577857Y-10956952D02*
X15558809Y-10976000D01*
X15558809Y-10976000D02*
X15530238Y-10985524D01*
X15530238Y-10985524D02*
X15482619Y-10985524D01*
X15682619Y-10985524D02*
X15682619Y-10852190D01*
X15682619Y-10890286D02*
X15692143Y-10871238D01*
X15692143Y-10871238D02*
X15701667Y-10861714D01*
X15701667Y-10861714D02*
X15720714Y-10852190D01*
X15720714Y-10852190D02*
X15739762Y-10852190D01*
X15806428Y-10985524D02*
X15806428Y-10852190D01*
X15806428Y-10785524D02*
X15796905Y-10795048D01*
X15796905Y-10795048D02*
X15806428Y-10804571D01*
X15806428Y-10804571D02*
X15815952Y-10795048D01*
X15815952Y-10795048D02*
X15806428Y-10785524D01*
X15806428Y-10785524D02*
X15806428Y-10804571D01*
X15930238Y-10985524D02*
X15911190Y-10976000D01*
X15911190Y-10976000D02*
X15901667Y-10956952D01*
X15901667Y-10956952D02*
X15901667Y-10785524D01*
X16035000Y-10985524D02*
X16015952Y-10976000D01*
X16015952Y-10976000D02*
X16006428Y-10956952D01*
X16006428Y-10956952D02*
X16006428Y-10785524D01*
X16263571Y-10985524D02*
X16263571Y-10785524D01*
X16263571Y-10785524D02*
X16330238Y-10928381D01*
X16330238Y-10928381D02*
X16396905Y-10785524D01*
X16396905Y-10785524D02*
X16396905Y-10985524D01*
X16577857Y-10985524D02*
X16577857Y-10880762D01*
X16577857Y-10880762D02*
X16568333Y-10861714D01*
X16568333Y-10861714D02*
X16549286Y-10852190D01*
X16549286Y-10852190D02*
X16511190Y-10852190D01*
X16511190Y-10852190D02*
X16492143Y-10861714D01*
X16577857Y-10976000D02*
X16558809Y-10985524D01*
X16558809Y-10985524D02*
X16511190Y-10985524D01*
X16511190Y-10985524D02*
X16492143Y-10976000D01*
X16492143Y-10976000D02*
X16482619Y-10956952D01*
X16482619Y-10956952D02*
X16482619Y-10937905D01*
X16482619Y-10937905D02*
X16492143Y-10918857D01*
X16492143Y-10918857D02*
X16511190Y-10909333D01*
X16511190Y-10909333D02*
X16558809Y-10909333D01*
X16558809Y-10909333D02*
X16577857Y-10899810D01*
X16673095Y-10852190D02*
X16673095Y-11052190D01*
X16673095Y-10861714D02*
X16692143Y-10852190D01*
X16692143Y-10852190D02*
X16730238Y-10852190D01*
X16730238Y-10852190D02*
X16749286Y-10861714D01*
X16749286Y-10861714D02*
X16758809Y-10871238D01*
X16758809Y-10871238D02*
X16768333Y-10890286D01*
X16768333Y-10890286D02*
X16768333Y-10947429D01*
X16768333Y-10947429D02*
X16758809Y-10966476D01*
X16758809Y-10966476D02*
X16749286Y-10976000D01*
X16749286Y-10976000D02*
X16730238Y-10985524D01*
X16730238Y-10985524D02*
X16692143Y-10985524D01*
X16692143Y-10985524D02*
X16673095Y-10976000D01*
X16854048Y-10966476D02*
X16863571Y-10976000D01*
X16863571Y-10976000D02*
X16854048Y-10985524D01*
X16854048Y-10985524D02*
X16844524Y-10976000D01*
X16844524Y-10976000D02*
X16854048Y-10966476D01*
X16854048Y-10966476D02*
X16854048Y-10985524D01*
X16854048Y-10861714D02*
X16863571Y-10871238D01*
X16863571Y-10871238D02*
X16854048Y-10880762D01*
X16854048Y-10880762D02*
X16844524Y-10871238D01*
X16844524Y-10871238D02*
X16854048Y-10861714D01*
X16854048Y-10861714D02*
X16854048Y-10880762D01*
D12*
X15195000Y-11293000D02*
X15235000Y-11333000D01*
X15235000Y-11293000D02*
X15195000Y-11333000D01*
D11*
X15520714Y-11205524D02*
X15539762Y-11205524D01*
X15539762Y-11205524D02*
X15558809Y-11215048D01*
X15558809Y-11215048D02*
X15568333Y-11224571D01*
X15568333Y-11224571D02*
X15577857Y-11243619D01*
X15577857Y-11243619D02*
X15587381Y-11281714D01*
X15587381Y-11281714D02*
X15587381Y-11329333D01*
X15587381Y-11329333D02*
X15577857Y-11367428D01*
X15577857Y-11367428D02*
X15568333Y-11386476D01*
X15568333Y-11386476D02*
X15558809Y-11396000D01*
X15558809Y-11396000D02*
X15539762Y-11405524D01*
X15539762Y-11405524D02*
X15520714Y-11405524D01*
X15520714Y-11405524D02*
X15501667Y-11396000D01*
X15501667Y-11396000D02*
X15492143Y-11386476D01*
X15492143Y-11386476D02*
X15482619Y-11367428D01*
X15482619Y-11367428D02*
X15473095Y-11329333D01*
X15473095Y-11329333D02*
X15473095Y-11281714D01*
X15473095Y-11281714D02*
X15482619Y-11243619D01*
X15482619Y-11243619D02*
X15492143Y-11224571D01*
X15492143Y-11224571D02*
X15501667Y-11215048D01*
X15501667Y-11215048D02*
X15520714Y-11205524D01*
X15673095Y-11386476D02*
X15682619Y-11396000D01*
X15682619Y-11396000D02*
X15673095Y-11405524D01*
X15673095Y-11405524D02*
X15663571Y-11396000D01*
X15663571Y-11396000D02*
X15673095Y-11386476D01*
X15673095Y-11386476D02*
X15673095Y-11405524D01*
X15854048Y-11272190D02*
X15854048Y-11405524D01*
X15806428Y-11196000D02*
X15758809Y-11338857D01*
X15758809Y-11338857D02*
X15882619Y-11338857D01*
X15996905Y-11205524D02*
X16015952Y-11205524D01*
X16015952Y-11205524D02*
X16035000Y-11215048D01*
X16035000Y-11215048D02*
X16044524Y-11224571D01*
X16044524Y-11224571D02*
X16054048Y-11243619D01*
X16054048Y-11243619D02*
X16063571Y-11281714D01*
X16063571Y-11281714D02*
X16063571Y-11329333D01*
X16063571Y-11329333D02*
X16054048Y-11367428D01*
X16054048Y-11367428D02*
X16044524Y-11386476D01*
X16044524Y-11386476D02*
X16035000Y-11396000D01*
X16035000Y-11396000D02*
X16015952Y-11405524D01*
X16015952Y-11405524D02*
X15996905Y-11405524D01*
X15996905Y-11405524D02*
X15977857Y-11396000D01*
X15977857Y-11396000D02*
X15968333Y-11386476D01*
X15968333Y-11386476D02*
X15958809Y-11367428D01*
X15958809Y-11367428D02*
X15949286Y-11329333D01*
X15949286Y-11329333D02*
X15949286Y-11281714D01*
X15949286Y-11281714D02*
X15958809Y-11243619D01*
X15958809Y-11243619D02*
X15968333Y-11224571D01*
X15968333Y-11224571D02*
X15977857Y-11215048D01*
X15977857Y-11215048D02*
X15996905Y-11205524D01*
X16187381Y-11205524D02*
X16206429Y-11205524D01*
X16206429Y-11205524D02*
X16225476Y-11215048D01*
X16225476Y-11215048D02*
X16235000Y-11224571D01*
X16235000Y-11224571D02*
X16244524Y-11243619D01*
X16244524Y-11243619D02*
X16254048Y-11281714D01*
X16254048Y-11281714D02*
X16254048Y-11329333D01*
X16254048Y-11329333D02*
X16244524Y-11367428D01*
X16244524Y-11367428D02*
X16235000Y-11386476D01*
X16235000Y-11386476D02*
X16225476Y-11396000D01*
X16225476Y-11396000D02*
X16206429Y-11405524D01*
X16206429Y-11405524D02*
X16187381Y-11405524D01*
X16187381Y-11405524D02*
X16168333Y-11396000D01*
X16168333Y-11396000D02*
X16158809Y-11386476D01*
X16158809Y-11386476D02*
X16149286Y-11367428D01*
X16149286Y-11367428D02*
X16139762Y-11329333D01*
X16139762Y-11329333D02*
X16139762Y-11281714D01*
X16139762Y-11281714D02*
X16149286Y-11243619D01*
X16149286Y-11243619D02*
X16158809Y-11224571D01*
X16158809Y-11224571D02*
X16168333Y-11215048D01*
X16168333Y-11215048D02*
X16187381Y-11205524D01*
X16339762Y-11405524D02*
X16339762Y-11272190D01*
X16339762Y-11291238D02*
X16349286Y-11281714D01*
X16349286Y-11281714D02*
X16368333Y-11272190D01*
X16368333Y-11272190D02*
X16396905Y-11272190D01*
X16396905Y-11272190D02*
X16415952Y-11281714D01*
X16415952Y-11281714D02*
X16425476Y-11300762D01*
X16425476Y-11300762D02*
X16425476Y-11405524D01*
X16425476Y-11300762D02*
X16435000Y-11281714D01*
X16435000Y-11281714D02*
X16454048Y-11272190D01*
X16454048Y-11272190D02*
X16482619Y-11272190D01*
X16482619Y-11272190D02*
X16501667Y-11281714D01*
X16501667Y-11281714D02*
X16511190Y-11300762D01*
X16511190Y-11300762D02*
X16511190Y-11405524D01*
X16606429Y-11405524D02*
X16606429Y-11272190D01*
X16606429Y-11291238D02*
X16615952Y-11281714D01*
X16615952Y-11281714D02*
X16635000Y-11272190D01*
X16635000Y-11272190D02*
X16663571Y-11272190D01*
X16663571Y-11272190D02*
X16682619Y-11281714D01*
X16682619Y-11281714D02*
X16692143Y-11300762D01*
X16692143Y-11300762D02*
X16692143Y-11405524D01*
X16692143Y-11300762D02*
X16701667Y-11281714D01*
X16701667Y-11281714D02*
X16720714Y-11272190D01*
X16720714Y-11272190D02*
X16749286Y-11272190D01*
X16749286Y-11272190D02*
X16768333Y-11281714D01*
X16768333Y-11281714D02*
X16777857Y-11300762D01*
X16777857Y-11300762D02*
X16777857Y-11405524D01*
X17168333Y-11196000D02*
X16996905Y-11453143D01*
X17425476Y-11205524D02*
X17444524Y-11205524D01*
X17444524Y-11205524D02*
X17463572Y-11215048D01*
X17463572Y-11215048D02*
X17473095Y-11224571D01*
X17473095Y-11224571D02*
X17482619Y-11243619D01*
X17482619Y-11243619D02*
X17492143Y-11281714D01*
X17492143Y-11281714D02*
X17492143Y-11329333D01*
X17492143Y-11329333D02*
X17482619Y-11367428D01*
X17482619Y-11367428D02*
X17473095Y-11386476D01*
X17473095Y-11386476D02*
X17463572Y-11396000D01*
X17463572Y-11396000D02*
X17444524Y-11405524D01*
X17444524Y-11405524D02*
X17425476Y-11405524D01*
X17425476Y-11405524D02*
X17406429Y-11396000D01*
X17406429Y-11396000D02*
X17396905Y-11386476D01*
X17396905Y-11386476D02*
X17387381Y-11367428D01*
X17387381Y-11367428D02*
X17377857Y-11329333D01*
X17377857Y-11329333D02*
X17377857Y-11281714D01*
X17377857Y-11281714D02*
X17387381Y-11243619D01*
X17387381Y-11243619D02*
X17396905Y-11224571D01*
X17396905Y-11224571D02*
X17406429Y-11215048D01*
X17406429Y-11215048D02*
X17425476Y-11205524D01*
X17577857Y-11386476D02*
X17587381Y-11396000D01*
X17587381Y-11396000D02*
X17577857Y-11405524D01*
X17577857Y-11405524D02*
X17568334Y-11396000D01*
X17568334Y-11396000D02*
X17577857Y-11386476D01*
X17577857Y-11386476D02*
X17577857Y-11405524D01*
X17711191Y-11205524D02*
X17730238Y-11205524D01*
X17730238Y-11205524D02*
X17749286Y-11215048D01*
X17749286Y-11215048D02*
X17758810Y-11224571D01*
X17758810Y-11224571D02*
X17768334Y-11243619D01*
X17768334Y-11243619D02*
X17777857Y-11281714D01*
X17777857Y-11281714D02*
X17777857Y-11329333D01*
X17777857Y-11329333D02*
X17768334Y-11367428D01*
X17768334Y-11367428D02*
X17758810Y-11386476D01*
X17758810Y-11386476D02*
X17749286Y-11396000D01*
X17749286Y-11396000D02*
X17730238Y-11405524D01*
X17730238Y-11405524D02*
X17711191Y-11405524D01*
X17711191Y-11405524D02*
X17692143Y-11396000D01*
X17692143Y-11396000D02*
X17682619Y-11386476D01*
X17682619Y-11386476D02*
X17673095Y-11367428D01*
X17673095Y-11367428D02*
X17663572Y-11329333D01*
X17663572Y-11329333D02*
X17663572Y-11281714D01*
X17663572Y-11281714D02*
X17673095Y-11243619D01*
X17673095Y-11243619D02*
X17682619Y-11224571D01*
X17682619Y-11224571D02*
X17692143Y-11215048D01*
X17692143Y-11215048D02*
X17711191Y-11205524D01*
X17968334Y-11405524D02*
X17854048Y-11405524D01*
X17911191Y-11405524D02*
X17911191Y-11205524D01*
X17911191Y-11205524D02*
X17892143Y-11234095D01*
X17892143Y-11234095D02*
X17873095Y-11253143D01*
X17873095Y-11253143D02*
X17854048Y-11262667D01*
X18149286Y-11205524D02*
X18054048Y-11205524D01*
X18054048Y-11205524D02*
X18044524Y-11300762D01*
X18044524Y-11300762D02*
X18054048Y-11291238D01*
X18054048Y-11291238D02*
X18073095Y-11281714D01*
X18073095Y-11281714D02*
X18120715Y-11281714D01*
X18120715Y-11281714D02*
X18139762Y-11291238D01*
X18139762Y-11291238D02*
X18149286Y-11300762D01*
X18149286Y-11300762D02*
X18158810Y-11319809D01*
X18158810Y-11319809D02*
X18158810Y-11367428D01*
X18158810Y-11367428D02*
X18149286Y-11386476D01*
X18149286Y-11386476D02*
X18139762Y-11396000D01*
X18139762Y-11396000D02*
X18120715Y-11405524D01*
X18120715Y-11405524D02*
X18073095Y-11405524D01*
X18073095Y-11405524D02*
X18054048Y-11396000D01*
X18054048Y-11396000D02*
X18044524Y-11386476D01*
X18225476Y-11205524D02*
X18358810Y-11205524D01*
X18358810Y-11205524D02*
X18273095Y-11405524D01*
X18425476Y-11205524D02*
X18425476Y-11243619D01*
X18501667Y-11205524D02*
X18501667Y-11243619D01*
X18796905Y-11481714D02*
X18787381Y-11472190D01*
X18787381Y-11472190D02*
X18768334Y-11443619D01*
X18768334Y-11443619D02*
X18758810Y-11424571D01*
X18758810Y-11424571D02*
X18749286Y-11396000D01*
X18749286Y-11396000D02*
X18739762Y-11348381D01*
X18739762Y-11348381D02*
X18739762Y-11310286D01*
X18739762Y-11310286D02*
X18749286Y-11262667D01*
X18749286Y-11262667D02*
X18758810Y-11234095D01*
X18758810Y-11234095D02*
X18768334Y-11215048D01*
X18768334Y-11215048D02*
X18787381Y-11186476D01*
X18787381Y-11186476D02*
X18796905Y-11176952D01*
X18977857Y-11405524D02*
X18863572Y-11405524D01*
X18920715Y-11405524D02*
X18920715Y-11205524D01*
X18920715Y-11205524D02*
X18901667Y-11234095D01*
X18901667Y-11234095D02*
X18882619Y-11253143D01*
X18882619Y-11253143D02*
X18863572Y-11262667D01*
X19168334Y-11405524D02*
X19054048Y-11405524D01*
X19111191Y-11405524D02*
X19111191Y-11205524D01*
X19111191Y-11205524D02*
X19092143Y-11234095D01*
X19092143Y-11234095D02*
X19073096Y-11253143D01*
X19073096Y-11253143D02*
X19054048Y-11262667D01*
X19406429Y-11405524D02*
X19406429Y-11205524D01*
X19492143Y-11405524D02*
X19492143Y-11300762D01*
X19492143Y-11300762D02*
X19482619Y-11281714D01*
X19482619Y-11281714D02*
X19463572Y-11272190D01*
X19463572Y-11272190D02*
X19435000Y-11272190D01*
X19435000Y-11272190D02*
X19415953Y-11281714D01*
X19415953Y-11281714D02*
X19406429Y-11291238D01*
X19615953Y-11405524D02*
X19596905Y-11396000D01*
X19596905Y-11396000D02*
X19587381Y-11386476D01*
X19587381Y-11386476D02*
X19577858Y-11367428D01*
X19577858Y-11367428D02*
X19577858Y-11310286D01*
X19577858Y-11310286D02*
X19587381Y-11291238D01*
X19587381Y-11291238D02*
X19596905Y-11281714D01*
X19596905Y-11281714D02*
X19615953Y-11272190D01*
X19615953Y-11272190D02*
X19644524Y-11272190D01*
X19644524Y-11272190D02*
X19663572Y-11281714D01*
X19663572Y-11281714D02*
X19673096Y-11291238D01*
X19673096Y-11291238D02*
X19682619Y-11310286D01*
X19682619Y-11310286D02*
X19682619Y-11367428D01*
X19682619Y-11367428D02*
X19673096Y-11386476D01*
X19673096Y-11386476D02*
X19663572Y-11396000D01*
X19663572Y-11396000D02*
X19644524Y-11405524D01*
X19644524Y-11405524D02*
X19615953Y-11405524D01*
X19796905Y-11405524D02*
X19777858Y-11396000D01*
X19777858Y-11396000D02*
X19768334Y-11376952D01*
X19768334Y-11376952D02*
X19768334Y-11205524D01*
X19949286Y-11396000D02*
X19930239Y-11405524D01*
X19930239Y-11405524D02*
X19892143Y-11405524D01*
X19892143Y-11405524D02*
X19873096Y-11396000D01*
X19873096Y-11396000D02*
X19863572Y-11376952D01*
X19863572Y-11376952D02*
X19863572Y-11300762D01*
X19863572Y-11300762D02*
X19873096Y-11281714D01*
X19873096Y-11281714D02*
X19892143Y-11272190D01*
X19892143Y-11272190D02*
X19930239Y-11272190D01*
X19930239Y-11272190D02*
X19949286Y-11281714D01*
X19949286Y-11281714D02*
X19958810Y-11300762D01*
X19958810Y-11300762D02*
X19958810Y-11319809D01*
X19958810Y-11319809D02*
X19863572Y-11338857D01*
X20035000Y-11396000D02*
X20054048Y-11405524D01*
X20054048Y-11405524D02*
X20092143Y-11405524D01*
X20092143Y-11405524D02*
X20111191Y-11396000D01*
X20111191Y-11396000D02*
X20120715Y-11376952D01*
X20120715Y-11376952D02*
X20120715Y-11367428D01*
X20120715Y-11367428D02*
X20111191Y-11348381D01*
X20111191Y-11348381D02*
X20092143Y-11338857D01*
X20092143Y-11338857D02*
X20063572Y-11338857D01*
X20063572Y-11338857D02*
X20044524Y-11329333D01*
X20044524Y-11329333D02*
X20035000Y-11310286D01*
X20035000Y-11310286D02*
X20035000Y-11300762D01*
X20035000Y-11300762D02*
X20044524Y-11281714D01*
X20044524Y-11281714D02*
X20063572Y-11272190D01*
X20063572Y-11272190D02*
X20092143Y-11272190D01*
X20092143Y-11272190D02*
X20111191Y-11281714D01*
X20187381Y-11481714D02*
X20196905Y-11472190D01*
X20196905Y-11472190D02*
X20215953Y-11443619D01*
X20215953Y-11443619D02*
X20225477Y-11424571D01*
X20225477Y-11424571D02*
X20235000Y-11396000D01*
X20235000Y-11396000D02*
X20244524Y-11348381D01*
X20244524Y-11348381D02*
X20244524Y-11310286D01*
X20244524Y-11310286D02*
X20235000Y-11262667D01*
X20235000Y-11262667D02*
X20225477Y-11234095D01*
X20225477Y-11234095D02*
X20215953Y-11215048D01*
X20215953Y-11215048D02*
X20196905Y-11186476D01*
X20196905Y-11186476D02*
X20187381Y-11176952D01*
D13*
X15235000Y-11577000D02*
G75*
G03*
X15235000Y-11577000I-55000J0D01*
G01*
D11*
X15587381Y-11669524D02*
X15473095Y-11669524D01*
X15530238Y-11669524D02*
X15530238Y-11469524D01*
X15530238Y-11469524D02*
X15511190Y-11498095D01*
X15511190Y-11498095D02*
X15492143Y-11517143D01*
X15492143Y-11517143D02*
X15473095Y-11526667D01*
X15673095Y-11650476D02*
X15682619Y-11660000D01*
X15682619Y-11660000D02*
X15673095Y-11669524D01*
X15673095Y-11669524D02*
X15663571Y-11660000D01*
X15663571Y-11660000D02*
X15673095Y-11650476D01*
X15673095Y-11650476D02*
X15673095Y-11669524D01*
X15873095Y-11669524D02*
X15758809Y-11669524D01*
X15815952Y-11669524D02*
X15815952Y-11469524D01*
X15815952Y-11469524D02*
X15796905Y-11498095D01*
X15796905Y-11498095D02*
X15777857Y-11517143D01*
X15777857Y-11517143D02*
X15758809Y-11526667D01*
X15996905Y-11469524D02*
X16015952Y-11469524D01*
X16015952Y-11469524D02*
X16035000Y-11479048D01*
X16035000Y-11479048D02*
X16044524Y-11488571D01*
X16044524Y-11488571D02*
X16054048Y-11507619D01*
X16054048Y-11507619D02*
X16063571Y-11545714D01*
X16063571Y-11545714D02*
X16063571Y-11593333D01*
X16063571Y-11593333D02*
X16054048Y-11631428D01*
X16054048Y-11631428D02*
X16044524Y-11650476D01*
X16044524Y-11650476D02*
X16035000Y-11660000D01*
X16035000Y-11660000D02*
X16015952Y-11669524D01*
X16015952Y-11669524D02*
X15996905Y-11669524D01*
X15996905Y-11669524D02*
X15977857Y-11660000D01*
X15977857Y-11660000D02*
X15968333Y-11650476D01*
X15968333Y-11650476D02*
X15958809Y-11631428D01*
X15958809Y-11631428D02*
X15949286Y-11593333D01*
X15949286Y-11593333D02*
X15949286Y-11545714D01*
X15949286Y-11545714D02*
X15958809Y-11507619D01*
X15958809Y-11507619D02*
X15968333Y-11488571D01*
X15968333Y-11488571D02*
X15977857Y-11479048D01*
X15977857Y-11479048D02*
X15996905Y-11469524D01*
X16187381Y-11469524D02*
X16206429Y-11469524D01*
X16206429Y-11469524D02*
X16225476Y-11479048D01*
X16225476Y-11479048D02*
X16235000Y-11488571D01*
X16235000Y-11488571D02*
X16244524Y-11507619D01*
X16244524Y-11507619D02*
X16254048Y-11545714D01*
X16254048Y-11545714D02*
X16254048Y-11593333D01*
X16254048Y-11593333D02*
X16244524Y-11631428D01*
X16244524Y-11631428D02*
X16235000Y-11650476D01*
X16235000Y-11650476D02*
X16225476Y-11660000D01*
X16225476Y-11660000D02*
X16206429Y-11669524D01*
X16206429Y-11669524D02*
X16187381Y-11669524D01*
X16187381Y-11669524D02*
X16168333Y-11660000D01*
X16168333Y-11660000D02*
X16158809Y-11650476D01*
X16158809Y-11650476D02*
X16149286Y-11631428D01*
X16149286Y-11631428D02*
X16139762Y-11593333D01*
X16139762Y-11593333D02*
X16139762Y-11545714D01*
X16139762Y-11545714D02*
X16149286Y-11507619D01*
X16149286Y-11507619D02*
X16158809Y-11488571D01*
X16158809Y-11488571D02*
X16168333Y-11479048D01*
X16168333Y-11479048D02*
X16187381Y-11469524D01*
X16339762Y-11669524D02*
X16339762Y-11536190D01*
X16339762Y-11555238D02*
X16349286Y-11545714D01*
X16349286Y-11545714D02*
X16368333Y-11536190D01*
X16368333Y-11536190D02*
X16396905Y-11536190D01*
X16396905Y-11536190D02*
X16415952Y-11545714D01*
X16415952Y-11545714D02*
X16425476Y-11564762D01*
X16425476Y-11564762D02*
X16425476Y-11669524D01*
X16425476Y-11564762D02*
X16435000Y-11545714D01*
X16435000Y-11545714D02*
X16454048Y-11536190D01*
X16454048Y-11536190D02*
X16482619Y-11536190D01*
X16482619Y-11536190D02*
X16501667Y-11545714D01*
X16501667Y-11545714D02*
X16511190Y-11564762D01*
X16511190Y-11564762D02*
X16511190Y-11669524D01*
X16606429Y-11669524D02*
X16606429Y-11536190D01*
X16606429Y-11555238D02*
X16615952Y-11545714D01*
X16615952Y-11545714D02*
X16635000Y-11536190D01*
X16635000Y-11536190D02*
X16663571Y-11536190D01*
X16663571Y-11536190D02*
X16682619Y-11545714D01*
X16682619Y-11545714D02*
X16692143Y-11564762D01*
X16692143Y-11564762D02*
X16692143Y-11669524D01*
X16692143Y-11564762D02*
X16701667Y-11545714D01*
X16701667Y-11545714D02*
X16720714Y-11536190D01*
X16720714Y-11536190D02*
X16749286Y-11536190D01*
X16749286Y-11536190D02*
X16768333Y-11545714D01*
X16768333Y-11545714D02*
X16777857Y-11564762D01*
X16777857Y-11564762D02*
X16777857Y-11669524D01*
X17168333Y-11460000D02*
X16996905Y-11717143D01*
X17425476Y-11469524D02*
X17444524Y-11469524D01*
X17444524Y-11469524D02*
X17463572Y-11479048D01*
X17463572Y-11479048D02*
X17473095Y-11488571D01*
X17473095Y-11488571D02*
X17482619Y-11507619D01*
X17482619Y-11507619D02*
X17492143Y-11545714D01*
X17492143Y-11545714D02*
X17492143Y-11593333D01*
X17492143Y-11593333D02*
X17482619Y-11631428D01*
X17482619Y-11631428D02*
X17473095Y-11650476D01*
X17473095Y-11650476D02*
X17463572Y-11660000D01*
X17463572Y-11660000D02*
X17444524Y-11669524D01*
X17444524Y-11669524D02*
X17425476Y-11669524D01*
X17425476Y-11669524D02*
X17406429Y-11660000D01*
X17406429Y-11660000D02*
X17396905Y-11650476D01*
X17396905Y-11650476D02*
X17387381Y-11631428D01*
X17387381Y-11631428D02*
X17377857Y-11593333D01*
X17377857Y-11593333D02*
X17377857Y-11545714D01*
X17377857Y-11545714D02*
X17387381Y-11507619D01*
X17387381Y-11507619D02*
X17396905Y-11488571D01*
X17396905Y-11488571D02*
X17406429Y-11479048D01*
X17406429Y-11479048D02*
X17425476Y-11469524D01*
X17577857Y-11650476D02*
X17587381Y-11660000D01*
X17587381Y-11660000D02*
X17577857Y-11669524D01*
X17577857Y-11669524D02*
X17568334Y-11660000D01*
X17568334Y-11660000D02*
X17577857Y-11650476D01*
X17577857Y-11650476D02*
X17577857Y-11669524D01*
X17711191Y-11469524D02*
X17730238Y-11469524D01*
X17730238Y-11469524D02*
X17749286Y-11479048D01*
X17749286Y-11479048D02*
X17758810Y-11488571D01*
X17758810Y-11488571D02*
X17768334Y-11507619D01*
X17768334Y-11507619D02*
X17777857Y-11545714D01*
X17777857Y-11545714D02*
X17777857Y-11593333D01*
X17777857Y-11593333D02*
X17768334Y-11631428D01*
X17768334Y-11631428D02*
X17758810Y-11650476D01*
X17758810Y-11650476D02*
X17749286Y-11660000D01*
X17749286Y-11660000D02*
X17730238Y-11669524D01*
X17730238Y-11669524D02*
X17711191Y-11669524D01*
X17711191Y-11669524D02*
X17692143Y-11660000D01*
X17692143Y-11660000D02*
X17682619Y-11650476D01*
X17682619Y-11650476D02*
X17673095Y-11631428D01*
X17673095Y-11631428D02*
X17663572Y-11593333D01*
X17663572Y-11593333D02*
X17663572Y-11545714D01*
X17663572Y-11545714D02*
X17673095Y-11507619D01*
X17673095Y-11507619D02*
X17682619Y-11488571D01*
X17682619Y-11488571D02*
X17692143Y-11479048D01*
X17692143Y-11479048D02*
X17711191Y-11469524D01*
X17949286Y-11536190D02*
X17949286Y-11669524D01*
X17901667Y-11460000D02*
X17854048Y-11602857D01*
X17854048Y-11602857D02*
X17977857Y-11602857D01*
X18035000Y-11469524D02*
X18158810Y-11469524D01*
X18158810Y-11469524D02*
X18092143Y-11545714D01*
X18092143Y-11545714D02*
X18120715Y-11545714D01*
X18120715Y-11545714D02*
X18139762Y-11555238D01*
X18139762Y-11555238D02*
X18149286Y-11564762D01*
X18149286Y-11564762D02*
X18158810Y-11583809D01*
X18158810Y-11583809D02*
X18158810Y-11631428D01*
X18158810Y-11631428D02*
X18149286Y-11650476D01*
X18149286Y-11650476D02*
X18139762Y-11660000D01*
X18139762Y-11660000D02*
X18120715Y-11669524D01*
X18120715Y-11669524D02*
X18063572Y-11669524D01*
X18063572Y-11669524D02*
X18044524Y-11660000D01*
X18044524Y-11660000D02*
X18035000Y-11650476D01*
X18225476Y-11469524D02*
X18349286Y-11469524D01*
X18349286Y-11469524D02*
X18282619Y-11545714D01*
X18282619Y-11545714D02*
X18311191Y-11545714D01*
X18311191Y-11545714D02*
X18330238Y-11555238D01*
X18330238Y-11555238D02*
X18339762Y-11564762D01*
X18339762Y-11564762D02*
X18349286Y-11583809D01*
X18349286Y-11583809D02*
X18349286Y-11631428D01*
X18349286Y-11631428D02*
X18339762Y-11650476D01*
X18339762Y-11650476D02*
X18330238Y-11660000D01*
X18330238Y-11660000D02*
X18311191Y-11669524D01*
X18311191Y-11669524D02*
X18254048Y-11669524D01*
X18254048Y-11669524D02*
X18235000Y-11660000D01*
X18235000Y-11660000D02*
X18225476Y-11650476D01*
X18425476Y-11469524D02*
X18425476Y-11507619D01*
X18501667Y-11469524D02*
X18501667Y-11507619D01*
X18796905Y-11745714D02*
X18787381Y-11736190D01*
X18787381Y-11736190D02*
X18768334Y-11707619D01*
X18768334Y-11707619D02*
X18758810Y-11688571D01*
X18758810Y-11688571D02*
X18749286Y-11660000D01*
X18749286Y-11660000D02*
X18739762Y-11612381D01*
X18739762Y-11612381D02*
X18739762Y-11574286D01*
X18739762Y-11574286D02*
X18749286Y-11526667D01*
X18749286Y-11526667D02*
X18758810Y-11498095D01*
X18758810Y-11498095D02*
X18768334Y-11479048D01*
X18768334Y-11479048D02*
X18787381Y-11450476D01*
X18787381Y-11450476D02*
X18796905Y-11440952D01*
X18854048Y-11469524D02*
X18977857Y-11469524D01*
X18977857Y-11469524D02*
X18911191Y-11545714D01*
X18911191Y-11545714D02*
X18939762Y-11545714D01*
X18939762Y-11545714D02*
X18958810Y-11555238D01*
X18958810Y-11555238D02*
X18968334Y-11564762D01*
X18968334Y-11564762D02*
X18977857Y-11583809D01*
X18977857Y-11583809D02*
X18977857Y-11631428D01*
X18977857Y-11631428D02*
X18968334Y-11650476D01*
X18968334Y-11650476D02*
X18958810Y-11660000D01*
X18958810Y-11660000D02*
X18939762Y-11669524D01*
X18939762Y-11669524D02*
X18882619Y-11669524D01*
X18882619Y-11669524D02*
X18863572Y-11660000D01*
X18863572Y-11660000D02*
X18854048Y-11650476D01*
X19215953Y-11669524D02*
X19215953Y-11469524D01*
X19301667Y-11669524D02*
X19301667Y-11564762D01*
X19301667Y-11564762D02*
X19292143Y-11545714D01*
X19292143Y-11545714D02*
X19273096Y-11536190D01*
X19273096Y-11536190D02*
X19244524Y-11536190D01*
X19244524Y-11536190D02*
X19225477Y-11545714D01*
X19225477Y-11545714D02*
X19215953Y-11555238D01*
X19425477Y-11669524D02*
X19406429Y-11660000D01*
X19406429Y-11660000D02*
X19396905Y-11650476D01*
X19396905Y-11650476D02*
X19387381Y-11631428D01*
X19387381Y-11631428D02*
X19387381Y-11574286D01*
X19387381Y-11574286D02*
X19396905Y-11555238D01*
X19396905Y-11555238D02*
X19406429Y-11545714D01*
X19406429Y-11545714D02*
X19425477Y-11536190D01*
X19425477Y-11536190D02*
X19454048Y-11536190D01*
X19454048Y-11536190D02*
X19473096Y-11545714D01*
X19473096Y-11545714D02*
X19482619Y-11555238D01*
X19482619Y-11555238D02*
X19492143Y-11574286D01*
X19492143Y-11574286D02*
X19492143Y-11631428D01*
X19492143Y-11631428D02*
X19482619Y-11650476D01*
X19482619Y-11650476D02*
X19473096Y-11660000D01*
X19473096Y-11660000D02*
X19454048Y-11669524D01*
X19454048Y-11669524D02*
X19425477Y-11669524D01*
X19606429Y-11669524D02*
X19587381Y-11660000D01*
X19587381Y-11660000D02*
X19577858Y-11640952D01*
X19577858Y-11640952D02*
X19577858Y-11469524D01*
X19758810Y-11660000D02*
X19739762Y-11669524D01*
X19739762Y-11669524D02*
X19701667Y-11669524D01*
X19701667Y-11669524D02*
X19682619Y-11660000D01*
X19682619Y-11660000D02*
X19673096Y-11640952D01*
X19673096Y-11640952D02*
X19673096Y-11564762D01*
X19673096Y-11564762D02*
X19682619Y-11545714D01*
X19682619Y-11545714D02*
X19701667Y-11536190D01*
X19701667Y-11536190D02*
X19739762Y-11536190D01*
X19739762Y-11536190D02*
X19758810Y-11545714D01*
X19758810Y-11545714D02*
X19768334Y-11564762D01*
X19768334Y-11564762D02*
X19768334Y-11583809D01*
X19768334Y-11583809D02*
X19673096Y-11602857D01*
X19844524Y-11660000D02*
X19863572Y-11669524D01*
X19863572Y-11669524D02*
X19901667Y-11669524D01*
X19901667Y-11669524D02*
X19920715Y-11660000D01*
X19920715Y-11660000D02*
X19930239Y-11640952D01*
X19930239Y-11640952D02*
X19930239Y-11631428D01*
X19930239Y-11631428D02*
X19920715Y-11612381D01*
X19920715Y-11612381D02*
X19901667Y-11602857D01*
X19901667Y-11602857D02*
X19873096Y-11602857D01*
X19873096Y-11602857D02*
X19854048Y-11593333D01*
X19854048Y-11593333D02*
X19844524Y-11574286D01*
X19844524Y-11574286D02*
X19844524Y-11564762D01*
X19844524Y-11564762D02*
X19854048Y-11545714D01*
X19854048Y-11545714D02*
X19873096Y-11536190D01*
X19873096Y-11536190D02*
X19901667Y-11536190D01*
X19901667Y-11536190D02*
X19920715Y-11545714D01*
X19996905Y-11745714D02*
X20006429Y-11736190D01*
X20006429Y-11736190D02*
X20025477Y-11707619D01*
X20025477Y-11707619D02*
X20035000Y-11688571D01*
X20035000Y-11688571D02*
X20044524Y-11660000D01*
X20044524Y-11660000D02*
X20054048Y-11612381D01*
X20054048Y-11612381D02*
X20054048Y-11574286D01*
X20054048Y-11574286D02*
X20044524Y-11526667D01*
X20044524Y-11526667D02*
X20035000Y-11498095D01*
X20035000Y-11498095D02*
X20025477Y-11479048D01*
X20025477Y-11479048D02*
X20006429Y-11450476D01*
X20006429Y-11450476D02*
X19996905Y-11440952D01*
M02*
