%TF.GenerationSoftware,KiCad,Pcbnew,7.0.2*%
%TF.CreationDate,2023-06-01T20:05:06-06:00*%
%TF.ProjectId,ArmchairBarf,41726d63-6861-4697-9242-6172662e6b69,rev?*%
%TF.SameCoordinates,Original*%
%TF.FileFunction,Copper,L2,Bot*%
%TF.FilePolarity,Positive*%
%FSLAX46Y46*%
G04 Gerber Fmt 4.6, Leading zero omitted, Abs format (unit mm)*
G04 Created by KiCad (PCBNEW 7.0.2) date 2023-06-01 20:05:06*
%MOMM*%
%LPD*%
G01*
G04 APERTURE LIST*
G04 Aperture macros list*
%AMRoundRect*
0 Rectangle with rounded corners*
0 $1 Rounding radius*
0 $2 $3 $4 $5 $6 $7 $8 $9 X,Y pos of 4 corners*
0 Add a 4 corners polygon primitive as box body*
4,1,4,$2,$3,$4,$5,$6,$7,$8,$9,$2,$3,0*
0 Add four circle primitives for the rounded corners*
1,1,$1+$1,$2,$3*
1,1,$1+$1,$4,$5*
1,1,$1+$1,$6,$7*
1,1,$1+$1,$8,$9*
0 Add four rect primitives between the rounded corners*
20,1,$1+$1,$2,$3,$4,$5,0*
20,1,$1+$1,$4,$5,$6,$7,0*
20,1,$1+$1,$6,$7,$8,$9,0*
20,1,$1+$1,$8,$9,$2,$3,0*%
G04 Aperture macros list end*
%TA.AperFunction,ComponentPad*%
%ADD10RoundRect,0.250001X-0.799999X0.799999X-0.799999X-0.799999X0.799999X-0.799999X0.799999X0.799999X0*%
%TD*%
%TA.AperFunction,ComponentPad*%
%ADD11C,2.100000*%
%TD*%
%TA.AperFunction,ViaPad*%
%ADD12C,0.800000*%
%TD*%
%TA.AperFunction,Conductor*%
%ADD13C,0.250000*%
%TD*%
G04 APERTURE END LIST*
D10*
%TO.P,J1,1,Pin_1*%
%TO.N,Net-(J1-Pin_1)*%
X154940000Y-89380000D03*
D11*
%TO.P,J1,2,Pin_2*%
%TO.N,Net-(J1-Pin_2)*%
X154940000Y-93980000D03*
%TO.P,J1,3,Pin_3*%
%TO.N,Net-(J1-Pin_3)*%
X154940000Y-98580000D03*
%TD*%
D12*
%TO.N,Net-(J1-Pin_3)*%
X166809502Y-90609502D03*
X172720000Y-93980000D03*
%TO.N,Net-(J1-Pin_1)*%
X167640000Y-101600000D03*
X167640000Y-93980000D03*
X167640000Y-98335500D03*
X175260000Y-99784500D03*
X172685402Y-96520000D03*
%TO.N,Net-(U7-DO)*%
X167640000Y-96520000D03*
X182880000Y-99060000D03*
%TO.N,Net-(U1-DO)*%
X165100000Y-101600000D03*
X165100000Y-88900000D03*
%TD*%
D13*
%TO.N,Net-(J1-Pin_1)*%
X166614695Y-96520000D02*
X166915000Y-96219695D01*
X165824500Y-96520000D02*
X166614695Y-96520000D01*
%TO.N,Net-(U7-DO)*%
X170180000Y-99060000D02*
X167640000Y-96520000D01*
%TO.N,Net-(J1-Pin_3)*%
X169349502Y-90609502D02*
X172720000Y-93980000D01*
X166809502Y-90609502D02*
X169349502Y-90609502D01*
%TO.N,Net-(J1-Pin_1)*%
X167640000Y-101600000D02*
X167640000Y-98335500D01*
X165550000Y-96070000D02*
X167640000Y-93980000D01*
X167640000Y-98335500D02*
X165550000Y-96245500D01*
X165550000Y-96245500D02*
X165550000Y-96070000D01*
X175260000Y-99510000D02*
X175260000Y-99784500D01*
X175710000Y-99510000D02*
X175260000Y-99510000D01*
X177800000Y-101600000D02*
X175710000Y-99510000D01*
X177800000Y-104140000D02*
X177800000Y-101600000D01*
X174234695Y-104140000D02*
X177800000Y-104140000D01*
X167339695Y-95795000D02*
X166915000Y-96219695D01*
X171960402Y-95795000D02*
X167339695Y-95795000D01*
X172685402Y-96520000D02*
X171960402Y-95795000D01*
X166915000Y-96219695D02*
X166915000Y-96820305D01*
X166915000Y-96820305D02*
X174234695Y-104140000D01*
%TO.N,Net-(U7-DO)*%
X182880000Y-99060000D02*
X170180000Y-99060000D01*
%TO.N,Net-(U1-DO)*%
X165100000Y-101600000D02*
X165100000Y-88900000D01*
%TD*%
M02*
