%TF.GenerationSoftware,KiCad,Pcbnew,7.0.2*%
%TF.CreationDate,2023-06-01T20:05:06-06:00*%
%TF.ProjectId,ArmchairBarf,41726d63-6861-4697-9242-6172662e6b69,rev?*%
%TF.SameCoordinates,Original*%
%TF.FileFunction,Soldermask,Top*%
%TF.FilePolarity,Negative*%
%FSLAX46Y46*%
G04 Gerber Fmt 4.6, Leading zero omitted, Abs format (unit mm)*
G04 Created by KiCad (PCBNEW 7.0.2) date 2023-06-01 20:05:06*
%MOMM*%
%LPD*%
G01*
G04 APERTURE LIST*
G04 Aperture macros list*
%AMRoundRect*
0 Rectangle with rounded corners*
0 $1 Rounding radius*
0 $2 $3 $4 $5 $6 $7 $8 $9 X,Y pos of 4 corners*
0 Add a 4 corners polygon primitive as box body*
4,1,4,$2,$3,$4,$5,$6,$7,$8,$9,$2,$3,0*
0 Add four circle primitives for the rounded corners*
1,1,$1+$1,$2,$3*
1,1,$1+$1,$4,$5*
1,1,$1+$1,$6,$7*
1,1,$1+$1,$8,$9*
0 Add four rect primitives between the rounded corners*
20,1,$1+$1,$2,$3,$4,$5,0*
20,1,$1+$1,$4,$5,$6,$7,0*
20,1,$1+$1,$6,$7,$8,$9,0*
20,1,$1+$1,$8,$9,$2,$3,0*%
G04 Aperture macros list end*
%ADD10R,0.700000X0.700000*%
%ADD11RoundRect,0.140000X0.170000X-0.140000X0.170000X0.140000X-0.170000X0.140000X-0.170000X-0.140000X0*%
%ADD12RoundRect,0.250001X-0.799999X0.799999X-0.799999X-0.799999X0.799999X-0.799999X0.799999X0.799999X0*%
%ADD13C,2.100000*%
%ADD14RoundRect,0.135000X-0.135000X-0.185000X0.135000X-0.185000X0.135000X0.185000X-0.135000X0.185000X0*%
G04 APERTURE END LIST*
D10*
%TO.C,U9*%
X164390000Y-97620000D03*
X164390000Y-96520000D03*
X162560000Y-96520000D03*
X162560000Y-97620000D03*
%TD*%
%TO.C,U1*%
X163475000Y-102150000D03*
X163475000Y-101050000D03*
X161645000Y-101050000D03*
X161645000Y-102150000D03*
%TD*%
%TO.C,U2*%
X168555000Y-89450000D03*
X168555000Y-88350000D03*
X166725000Y-88350000D03*
X166725000Y-89450000D03*
%TD*%
%TO.C,U6*%
X182170000Y-102700000D03*
X182170000Y-101600000D03*
X180340000Y-101600000D03*
X180340000Y-102700000D03*
%TD*%
%TO.C,U5*%
X175260000Y-102700000D03*
X175260000Y-101600000D03*
X173430000Y-101600000D03*
X173430000Y-102700000D03*
%TD*%
D11*
%TO.C,C1*%
X160020000Y-94460000D03*
X160020000Y-93500000D03*
%TD*%
D10*
%TO.C,U3*%
X175260000Y-91990000D03*
X175260000Y-90890000D03*
X173430000Y-90890000D03*
X173430000Y-91990000D03*
%TD*%
%TO.C,U7*%
X179630000Y-97620000D03*
X179630000Y-96520000D03*
X177800000Y-96520000D03*
X177800000Y-97620000D03*
%TD*%
D12*
%TO.C,J1*%
X154940000Y-89380000D03*
D13*
X154940000Y-93980000D03*
X154940000Y-98580000D03*
%TD*%
D14*
%TO.C,R1*%
X159000000Y-99060000D03*
X160020000Y-99060000D03*
%TD*%
D10*
%TO.C,U4*%
X181255000Y-91990000D03*
X181255000Y-90890000D03*
X179425000Y-90890000D03*
X179425000Y-91990000D03*
%TD*%
%TO.C,U8*%
X172010000Y-97620000D03*
X172010000Y-96520000D03*
X170180000Y-96520000D03*
X170180000Y-97620000D03*
%TD*%
M02*
