%TF.GenerationSoftware,KiCad,Pcbnew,7.0.2*%
%TF.CreationDate,2023-06-01T20:05:19-06:00*%
%TF.ProjectId,ArmchairBarf,41726d63-6861-4697-9242-6172662e6b69,rev?*%
%TF.SameCoordinates,Original*%
%TF.FileFunction,Drillmap*%
%TF.FilePolarity,Positive*%
%FSLAX45Y45*%
G04 Gerber Fmt 4.5, Leading zero omitted, Abs format (unit mm)*
G04 Created by KiCad (PCBNEW 7.0.2) date 2023-06-01 20:05:19*
%MOMM*%
%LPD*%
G01*
G04 APERTURE LIST*
%ADD10C,0.100000*%
%ADD11C,0.200000*%
G04 APERTURE END LIST*
D10*
X16764000Y-10668000D02*
X16510000Y-10414000D01*
X15494000Y-8636000D02*
X15240000Y-8636000D01*
X18542000Y-8890000D02*
X18288000Y-8636000D01*
X15494000Y-10414000D02*
X16002000Y-10414000D01*
X15240000Y-10160000D02*
X15494000Y-10414000D01*
X18288000Y-8636000D02*
X18034000Y-8636000D01*
X16764000Y-10668000D02*
X18288000Y-10668000D01*
X16002000Y-10414000D02*
X16510000Y-10414000D01*
X15240000Y-9906000D02*
X15240000Y-10160000D01*
X15240000Y-8636000D02*
X15240000Y-9906000D01*
X18034000Y-8636000D02*
X15494000Y-8636000D01*
X18542000Y-10414000D02*
X18542000Y-8890000D01*
X18288000Y-10668000D02*
X18542000Y-10414000D01*
D11*
X15482619Y-10985524D02*
X15482619Y-10785524D01*
X15482619Y-10785524D02*
X15530238Y-10785524D01*
X15530238Y-10785524D02*
X15558809Y-10795048D01*
X15558809Y-10795048D02*
X15577857Y-10814095D01*
X15577857Y-10814095D02*
X15587381Y-10833143D01*
X15587381Y-10833143D02*
X15596905Y-10871238D01*
X15596905Y-10871238D02*
X15596905Y-10899810D01*
X15596905Y-10899810D02*
X15587381Y-10937905D01*
X15587381Y-10937905D02*
X15577857Y-10956952D01*
X15577857Y-10956952D02*
X15558809Y-10976000D01*
X15558809Y-10976000D02*
X15530238Y-10985524D01*
X15530238Y-10985524D02*
X15482619Y-10985524D01*
X15682619Y-10985524D02*
X15682619Y-10852190D01*
X15682619Y-10890286D02*
X15692143Y-10871238D01*
X15692143Y-10871238D02*
X15701667Y-10861714D01*
X15701667Y-10861714D02*
X15720714Y-10852190D01*
X15720714Y-10852190D02*
X15739762Y-10852190D01*
X15806428Y-10985524D02*
X15806428Y-10852190D01*
X15806428Y-10785524D02*
X15796905Y-10795048D01*
X15796905Y-10795048D02*
X15806428Y-10804571D01*
X15806428Y-10804571D02*
X15815952Y-10795048D01*
X15815952Y-10795048D02*
X15806428Y-10785524D01*
X15806428Y-10785524D02*
X15806428Y-10804571D01*
X15930238Y-10985524D02*
X15911190Y-10976000D01*
X15911190Y-10976000D02*
X15901667Y-10956952D01*
X15901667Y-10956952D02*
X15901667Y-10785524D01*
X16035000Y-10985524D02*
X16015952Y-10976000D01*
X16015952Y-10976000D02*
X16006428Y-10956952D01*
X16006428Y-10956952D02*
X16006428Y-10785524D01*
X16263571Y-10985524D02*
X16263571Y-10785524D01*
X16263571Y-10785524D02*
X16330238Y-10928381D01*
X16330238Y-10928381D02*
X16396905Y-10785524D01*
X16396905Y-10785524D02*
X16396905Y-10985524D01*
X16577857Y-10985524D02*
X16577857Y-10880762D01*
X16577857Y-10880762D02*
X16568333Y-10861714D01*
X16568333Y-10861714D02*
X16549286Y-10852190D01*
X16549286Y-10852190D02*
X16511190Y-10852190D01*
X16511190Y-10852190D02*
X16492143Y-10861714D01*
X16577857Y-10976000D02*
X16558809Y-10985524D01*
X16558809Y-10985524D02*
X16511190Y-10985524D01*
X16511190Y-10985524D02*
X16492143Y-10976000D01*
X16492143Y-10976000D02*
X16482619Y-10956952D01*
X16482619Y-10956952D02*
X16482619Y-10937905D01*
X16482619Y-10937905D02*
X16492143Y-10918857D01*
X16492143Y-10918857D02*
X16511190Y-10909333D01*
X16511190Y-10909333D02*
X16558809Y-10909333D01*
X16558809Y-10909333D02*
X16577857Y-10899810D01*
X16673095Y-10852190D02*
X16673095Y-11052190D01*
X16673095Y-10861714D02*
X16692143Y-10852190D01*
X16692143Y-10852190D02*
X16730238Y-10852190D01*
X16730238Y-10852190D02*
X16749286Y-10861714D01*
X16749286Y-10861714D02*
X16758809Y-10871238D01*
X16758809Y-10871238D02*
X16768333Y-10890286D01*
X16768333Y-10890286D02*
X16768333Y-10947429D01*
X16768333Y-10947429D02*
X16758809Y-10966476D01*
X16758809Y-10966476D02*
X16749286Y-10976000D01*
X16749286Y-10976000D02*
X16730238Y-10985524D01*
X16730238Y-10985524D02*
X16692143Y-10985524D01*
X16692143Y-10985524D02*
X16673095Y-10976000D01*
X16854048Y-10966476D02*
X16863571Y-10976000D01*
X16863571Y-10976000D02*
X16854048Y-10985524D01*
X16854048Y-10985524D02*
X16844524Y-10976000D01*
X16844524Y-10976000D02*
X16854048Y-10966476D01*
X16854048Y-10966476D02*
X16854048Y-10985524D01*
X16854048Y-10861714D02*
X16863571Y-10871238D01*
X16863571Y-10871238D02*
X16854048Y-10880762D01*
X16854048Y-10880762D02*
X16844524Y-10871238D01*
X16844524Y-10871238D02*
X16854048Y-10861714D01*
X16854048Y-10861714D02*
X16854048Y-10880762D01*
M02*
