%TF.GenerationSoftware,KiCad,Pcbnew,7.0.2*%
%TF.CreationDate,2023-06-01T20:05:06-06:00*%
%TF.ProjectId,ArmchairBarf,41726d63-6861-4697-9242-6172662e6b69,rev?*%
%TF.SameCoordinates,Original*%
%TF.FileFunction,Legend,Top*%
%TF.FilePolarity,Positive*%
%FSLAX46Y46*%
G04 Gerber Fmt 4.6, Leading zero omitted, Abs format (unit mm)*
G04 Created by KiCad (PCBNEW 7.0.2) date 2023-06-01 20:05:06*
%MOMM*%
%LPD*%
G01*
G04 APERTURE LIST*
%ADD10C,0.150000*%
%ADD11C,0.127000*%
%ADD12C,0.200000*%
%ADD13C,0.120000*%
G04 APERTURE END LIST*
D10*
X171525383Y-87780704D02*
X172001573Y-87780704D01*
X171430145Y-88066419D02*
X171763478Y-87066419D01*
X171763478Y-87066419D02*
X172096811Y-88066419D01*
X172430145Y-88066419D02*
X172430145Y-87399752D01*
X172430145Y-87590228D02*
X172477764Y-87494990D01*
X172477764Y-87494990D02*
X172525383Y-87447371D01*
X172525383Y-87447371D02*
X172620621Y-87399752D01*
X172620621Y-87399752D02*
X172715859Y-87399752D01*
X173049193Y-88066419D02*
X173049193Y-87399752D01*
X173049193Y-87494990D02*
X173096812Y-87447371D01*
X173096812Y-87447371D02*
X173192050Y-87399752D01*
X173192050Y-87399752D02*
X173334907Y-87399752D01*
X173334907Y-87399752D02*
X173430145Y-87447371D01*
X173430145Y-87447371D02*
X173477764Y-87542609D01*
X173477764Y-87542609D02*
X173477764Y-88066419D01*
X173477764Y-87542609D02*
X173525383Y-87447371D01*
X173525383Y-87447371D02*
X173620621Y-87399752D01*
X173620621Y-87399752D02*
X173763478Y-87399752D01*
X173763478Y-87399752D02*
X173858717Y-87447371D01*
X173858717Y-87447371D02*
X173906336Y-87542609D01*
X173906336Y-87542609D02*
X173906336Y-88066419D01*
X174811097Y-88018800D02*
X174715859Y-88066419D01*
X174715859Y-88066419D02*
X174525383Y-88066419D01*
X174525383Y-88066419D02*
X174430145Y-88018800D01*
X174430145Y-88018800D02*
X174382526Y-87971180D01*
X174382526Y-87971180D02*
X174334907Y-87875942D01*
X174334907Y-87875942D02*
X174334907Y-87590228D01*
X174334907Y-87590228D02*
X174382526Y-87494990D01*
X174382526Y-87494990D02*
X174430145Y-87447371D01*
X174430145Y-87447371D02*
X174525383Y-87399752D01*
X174525383Y-87399752D02*
X174715859Y-87399752D01*
X174715859Y-87399752D02*
X174811097Y-87447371D01*
X175239669Y-88066419D02*
X175239669Y-87066419D01*
X175668240Y-88066419D02*
X175668240Y-87542609D01*
X175668240Y-87542609D02*
X175620621Y-87447371D01*
X175620621Y-87447371D02*
X175525383Y-87399752D01*
X175525383Y-87399752D02*
X175382526Y-87399752D01*
X175382526Y-87399752D02*
X175287288Y-87447371D01*
X175287288Y-87447371D02*
X175239669Y-87494990D01*
X176573002Y-88066419D02*
X176573002Y-87542609D01*
X176573002Y-87542609D02*
X176525383Y-87447371D01*
X176525383Y-87447371D02*
X176430145Y-87399752D01*
X176430145Y-87399752D02*
X176239669Y-87399752D01*
X176239669Y-87399752D02*
X176144431Y-87447371D01*
X176573002Y-88018800D02*
X176477764Y-88066419D01*
X176477764Y-88066419D02*
X176239669Y-88066419D01*
X176239669Y-88066419D02*
X176144431Y-88018800D01*
X176144431Y-88018800D02*
X176096812Y-87923561D01*
X176096812Y-87923561D02*
X176096812Y-87828323D01*
X176096812Y-87828323D02*
X176144431Y-87733085D01*
X176144431Y-87733085D02*
X176239669Y-87685466D01*
X176239669Y-87685466D02*
X176477764Y-87685466D01*
X176477764Y-87685466D02*
X176573002Y-87637847D01*
X177049193Y-88066419D02*
X177049193Y-87399752D01*
X177049193Y-87066419D02*
X177001574Y-87114038D01*
X177001574Y-87114038D02*
X177049193Y-87161657D01*
X177049193Y-87161657D02*
X177096812Y-87114038D01*
X177096812Y-87114038D02*
X177049193Y-87066419D01*
X177049193Y-87066419D02*
X177049193Y-87161657D01*
X177525383Y-88066419D02*
X177525383Y-87399752D01*
X177525383Y-87590228D02*
X177573002Y-87494990D01*
X177573002Y-87494990D02*
X177620621Y-87447371D01*
X177620621Y-87447371D02*
X177715859Y-87399752D01*
X177715859Y-87399752D02*
X177811097Y-87399752D01*
X179239669Y-87542609D02*
X179382526Y-87590228D01*
X179382526Y-87590228D02*
X179430145Y-87637847D01*
X179430145Y-87637847D02*
X179477764Y-87733085D01*
X179477764Y-87733085D02*
X179477764Y-87875942D01*
X179477764Y-87875942D02*
X179430145Y-87971180D01*
X179430145Y-87971180D02*
X179382526Y-88018800D01*
X179382526Y-88018800D02*
X179287288Y-88066419D01*
X179287288Y-88066419D02*
X178906336Y-88066419D01*
X178906336Y-88066419D02*
X178906336Y-87066419D01*
X178906336Y-87066419D02*
X179239669Y-87066419D01*
X179239669Y-87066419D02*
X179334907Y-87114038D01*
X179334907Y-87114038D02*
X179382526Y-87161657D01*
X179382526Y-87161657D02*
X179430145Y-87256895D01*
X179430145Y-87256895D02*
X179430145Y-87352133D01*
X179430145Y-87352133D02*
X179382526Y-87447371D01*
X179382526Y-87447371D02*
X179334907Y-87494990D01*
X179334907Y-87494990D02*
X179239669Y-87542609D01*
X179239669Y-87542609D02*
X178906336Y-87542609D01*
X180334907Y-88066419D02*
X180334907Y-87542609D01*
X180334907Y-87542609D02*
X180287288Y-87447371D01*
X180287288Y-87447371D02*
X180192050Y-87399752D01*
X180192050Y-87399752D02*
X180001574Y-87399752D01*
X180001574Y-87399752D02*
X179906336Y-87447371D01*
X180334907Y-88018800D02*
X180239669Y-88066419D01*
X180239669Y-88066419D02*
X180001574Y-88066419D01*
X180001574Y-88066419D02*
X179906336Y-88018800D01*
X179906336Y-88018800D02*
X179858717Y-87923561D01*
X179858717Y-87923561D02*
X179858717Y-87828323D01*
X179858717Y-87828323D02*
X179906336Y-87733085D01*
X179906336Y-87733085D02*
X180001574Y-87685466D01*
X180001574Y-87685466D02*
X180239669Y-87685466D01*
X180239669Y-87685466D02*
X180334907Y-87637847D01*
X180811098Y-88066419D02*
X180811098Y-87399752D01*
X180811098Y-87590228D02*
X180858717Y-87494990D01*
X180858717Y-87494990D02*
X180906336Y-87447371D01*
X180906336Y-87447371D02*
X181001574Y-87399752D01*
X181001574Y-87399752D02*
X181096812Y-87399752D01*
X181287289Y-87399752D02*
X181668241Y-87399752D01*
X181430146Y-88066419D02*
X181430146Y-87209276D01*
X181430146Y-87209276D02*
X181477765Y-87114038D01*
X181477765Y-87114038D02*
X181573003Y-87066419D01*
X181573003Y-87066419D02*
X181668241Y-87066419D01*
X169266941Y-105959751D02*
X169266941Y-104959751D01*
X169266941Y-105340703D02*
X169362179Y-105293084D01*
X169362179Y-105293084D02*
X169552655Y-105293084D01*
X169552655Y-105293084D02*
X169647893Y-105340703D01*
X169647893Y-105340703D02*
X169695512Y-105388322D01*
X169695512Y-105388322D02*
X169743131Y-105483560D01*
X169743131Y-105483560D02*
X169743131Y-105769274D01*
X169743131Y-105769274D02*
X169695512Y-105864512D01*
X169695512Y-105864512D02*
X169647893Y-105912132D01*
X169647893Y-105912132D02*
X169552655Y-105959751D01*
X169552655Y-105959751D02*
X169362179Y-105959751D01*
X169362179Y-105959751D02*
X169266941Y-105912132D01*
X170076465Y-105293084D02*
X170314560Y-105959751D01*
X170552655Y-105293084D02*
X170314560Y-105959751D01*
X170314560Y-105959751D02*
X170219322Y-106197846D01*
X170219322Y-106197846D02*
X170171703Y-106245465D01*
X170171703Y-106245465D02*
X170076465Y-106293084D01*
X172171703Y-105959751D02*
X171695513Y-105959751D01*
X171695513Y-105959751D02*
X171695513Y-104959751D01*
X172505037Y-105959751D02*
X172505037Y-105293084D01*
X172505037Y-104959751D02*
X172457418Y-105007370D01*
X172457418Y-105007370D02*
X172505037Y-105054989D01*
X172505037Y-105054989D02*
X172552656Y-105007370D01*
X172552656Y-105007370D02*
X172505037Y-104959751D01*
X172505037Y-104959751D02*
X172505037Y-105054989D01*
X173124084Y-105959751D02*
X173028846Y-105912132D01*
X173028846Y-105912132D02*
X172981227Y-105816893D01*
X172981227Y-105816893D02*
X172981227Y-104959751D01*
X173647894Y-105959751D02*
X173552656Y-105912132D01*
X173552656Y-105912132D02*
X173505037Y-105816893D01*
X173505037Y-105816893D02*
X173505037Y-104959751D01*
X174028847Y-105959751D02*
X174028847Y-105293084D01*
X174028847Y-104959751D02*
X173981228Y-105007370D01*
X173981228Y-105007370D02*
X174028847Y-105054989D01*
X174028847Y-105054989D02*
X174076466Y-105007370D01*
X174076466Y-105007370D02*
X174028847Y-104959751D01*
X174028847Y-104959751D02*
X174028847Y-105054989D01*
X174933608Y-105959751D02*
X174933608Y-105435941D01*
X174933608Y-105435941D02*
X174885989Y-105340703D01*
X174885989Y-105340703D02*
X174790751Y-105293084D01*
X174790751Y-105293084D02*
X174600275Y-105293084D01*
X174600275Y-105293084D02*
X174505037Y-105340703D01*
X174933608Y-105912132D02*
X174838370Y-105959751D01*
X174838370Y-105959751D02*
X174600275Y-105959751D01*
X174600275Y-105959751D02*
X174505037Y-105912132D01*
X174505037Y-105912132D02*
X174457418Y-105816893D01*
X174457418Y-105816893D02*
X174457418Y-105721655D01*
X174457418Y-105721655D02*
X174505037Y-105626417D01*
X174505037Y-105626417D02*
X174600275Y-105578798D01*
X174600275Y-105578798D02*
X174838370Y-105578798D01*
X174838370Y-105578798D02*
X174933608Y-105531179D01*
X175409799Y-105293084D02*
X175409799Y-105959751D01*
X175409799Y-105388322D02*
X175457418Y-105340703D01*
X175457418Y-105340703D02*
X175552656Y-105293084D01*
X175552656Y-105293084D02*
X175695513Y-105293084D01*
X175695513Y-105293084D02*
X175790751Y-105340703D01*
X175790751Y-105340703D02*
X175838370Y-105435941D01*
X175838370Y-105435941D02*
X175838370Y-105959751D01*
X176743132Y-105959751D02*
X176743132Y-105435941D01*
X176743132Y-105435941D02*
X176695513Y-105340703D01*
X176695513Y-105340703D02*
X176600275Y-105293084D01*
X176600275Y-105293084D02*
X176409799Y-105293084D01*
X176409799Y-105293084D02*
X176314561Y-105340703D01*
X176743132Y-105912132D02*
X176647894Y-105959751D01*
X176647894Y-105959751D02*
X176409799Y-105959751D01*
X176409799Y-105959751D02*
X176314561Y-105912132D01*
X176314561Y-105912132D02*
X176266942Y-105816893D01*
X176266942Y-105816893D02*
X176266942Y-105721655D01*
X176266942Y-105721655D02*
X176314561Y-105626417D01*
X176314561Y-105626417D02*
X176409799Y-105578798D01*
X176409799Y-105578798D02*
X176647894Y-105578798D01*
X176647894Y-105578798D02*
X176743132Y-105531179D01*
X177219323Y-105959751D02*
X177219323Y-104959751D01*
X177219323Y-104959751D02*
X177552656Y-105674036D01*
X177552656Y-105674036D02*
X177885989Y-104959751D01*
X177885989Y-104959751D02*
X177885989Y-105959751D01*
X178362180Y-105959751D02*
X178362180Y-105293084D01*
X178362180Y-104959751D02*
X178314561Y-105007370D01*
X178314561Y-105007370D02*
X178362180Y-105054989D01*
X178362180Y-105054989D02*
X178409799Y-105007370D01*
X178409799Y-105007370D02*
X178362180Y-104959751D01*
X178362180Y-104959751D02*
X178362180Y-105054989D01*
X178838370Y-105959751D02*
X178838370Y-105293084D01*
X178838370Y-105483560D02*
X178885989Y-105388322D01*
X178885989Y-105388322D02*
X178933608Y-105340703D01*
X178933608Y-105340703D02*
X179028846Y-105293084D01*
X179028846Y-105293084D02*
X179124084Y-105293084D01*
X179457418Y-105959751D02*
X179457418Y-105293084D01*
X179457418Y-105483560D02*
X179505037Y-105388322D01*
X179505037Y-105388322D02*
X179552656Y-105340703D01*
X179552656Y-105340703D02*
X179647894Y-105293084D01*
X179647894Y-105293084D02*
X179743132Y-105293084D01*
X180219323Y-105959751D02*
X180124085Y-105912132D01*
X180124085Y-105912132D02*
X180076466Y-105864512D01*
X180076466Y-105864512D02*
X180028847Y-105769274D01*
X180028847Y-105769274D02*
X180028847Y-105483560D01*
X180028847Y-105483560D02*
X180076466Y-105388322D01*
X180076466Y-105388322D02*
X180124085Y-105340703D01*
X180124085Y-105340703D02*
X180219323Y-105293084D01*
X180219323Y-105293084D02*
X180362180Y-105293084D01*
X180362180Y-105293084D02*
X180457418Y-105340703D01*
X180457418Y-105340703D02*
X180505037Y-105388322D01*
X180505037Y-105388322D02*
X180552656Y-105483560D01*
X180552656Y-105483560D02*
X180552656Y-105769274D01*
X180552656Y-105769274D02*
X180505037Y-105864512D01*
X180505037Y-105864512D02*
X180457418Y-105912132D01*
X180457418Y-105912132D02*
X180362180Y-105959751D01*
X180362180Y-105959751D02*
X180219323Y-105959751D01*
X180981228Y-105959751D02*
X180981228Y-105293084D01*
X180981228Y-105483560D02*
X181028847Y-105388322D01*
X181028847Y-105388322D02*
X181076466Y-105340703D01*
X181076466Y-105340703D02*
X181171704Y-105293084D01*
X181171704Y-105293084D02*
X181266942Y-105293084D01*
X181552657Y-105912132D02*
X181647895Y-105959751D01*
X181647895Y-105959751D02*
X181838371Y-105959751D01*
X181838371Y-105959751D02*
X181933609Y-105912132D01*
X181933609Y-105912132D02*
X181981228Y-105816893D01*
X181981228Y-105816893D02*
X181981228Y-105769274D01*
X181981228Y-105769274D02*
X181933609Y-105674036D01*
X181933609Y-105674036D02*
X181838371Y-105626417D01*
X181838371Y-105626417D02*
X181695514Y-105626417D01*
X181695514Y-105626417D02*
X181600276Y-105578798D01*
X181600276Y-105578798D02*
X181552657Y-105483560D01*
X181552657Y-105483560D02*
X181552657Y-105435941D01*
X181552657Y-105435941D02*
X181600276Y-105340703D01*
X181600276Y-105340703D02*
X181695514Y-105293084D01*
X181695514Y-105293084D02*
X181838371Y-105293084D01*
X181838371Y-105293084D02*
X181933609Y-105340703D01*
%TO.C,C1*%
X161791395Y-94129794D02*
X161839015Y-94177413D01*
X161839015Y-94177413D02*
X161886634Y-94320270D01*
X161886634Y-94320270D02*
X161886634Y-94415508D01*
X161886634Y-94415508D02*
X161839015Y-94558365D01*
X161839015Y-94558365D02*
X161743776Y-94653603D01*
X161743776Y-94653603D02*
X161648538Y-94701222D01*
X161648538Y-94701222D02*
X161458062Y-94748841D01*
X161458062Y-94748841D02*
X161315205Y-94748841D01*
X161315205Y-94748841D02*
X161124729Y-94701222D01*
X161124729Y-94701222D02*
X161029491Y-94653603D01*
X161029491Y-94653603D02*
X160934253Y-94558365D01*
X160934253Y-94558365D02*
X160886634Y-94415508D01*
X160886634Y-94415508D02*
X160886634Y-94320270D01*
X160886634Y-94320270D02*
X160934253Y-94177413D01*
X160934253Y-94177413D02*
X160981872Y-94129794D01*
X161886634Y-93177413D02*
X161886634Y-93748841D01*
X161886634Y-93463127D02*
X160886634Y-93463127D01*
X160886634Y-93463127D02*
X161029491Y-93558365D01*
X161029491Y-93558365D02*
X161124729Y-93653603D01*
X161124729Y-93653603D02*
X161172348Y-93748841D01*
%TO.C,J1*%
X156652619Y-94313333D02*
X157366904Y-94313333D01*
X157366904Y-94313333D02*
X157509761Y-94360952D01*
X157509761Y-94360952D02*
X157605000Y-94456190D01*
X157605000Y-94456190D02*
X157652619Y-94599047D01*
X157652619Y-94599047D02*
X157652619Y-94694285D01*
X157652619Y-93313333D02*
X157652619Y-93884761D01*
X157652619Y-93599047D02*
X156652619Y-93599047D01*
X156652619Y-93599047D02*
X156795476Y-93694285D01*
X156795476Y-93694285D02*
X156890714Y-93789523D01*
X156890714Y-93789523D02*
X156938333Y-93884761D01*
%TO.C,R1*%
X159343333Y-98352619D02*
X159010000Y-97876428D01*
X158771905Y-98352619D02*
X158771905Y-97352619D01*
X158771905Y-97352619D02*
X159152857Y-97352619D01*
X159152857Y-97352619D02*
X159248095Y-97400238D01*
X159248095Y-97400238D02*
X159295714Y-97447857D01*
X159295714Y-97447857D02*
X159343333Y-97543095D01*
X159343333Y-97543095D02*
X159343333Y-97685952D01*
X159343333Y-97685952D02*
X159295714Y-97781190D01*
X159295714Y-97781190D02*
X159248095Y-97828809D01*
X159248095Y-97828809D02*
X159152857Y-97876428D01*
X159152857Y-97876428D02*
X158771905Y-97876428D01*
X160295714Y-98352619D02*
X159724286Y-98352619D01*
X160010000Y-98352619D02*
X160010000Y-97352619D01*
X160010000Y-97352619D02*
X159914762Y-97495476D01*
X159914762Y-97495476D02*
X159819524Y-97590714D01*
X159819524Y-97590714D02*
X159724286Y-97638333D01*
D11*
%TO.C,U9*%
X163720000Y-96070000D02*
X163230000Y-96070000D01*
X163720000Y-98070000D02*
X163230000Y-98070000D01*
D12*
X165445000Y-97620000D02*
G75*
G03*
X165445000Y-97620000I-100000J0D01*
G01*
D11*
%TO.C,U1*%
X162805000Y-100600000D02*
X162315000Y-100600000D01*
X162805000Y-102600000D02*
X162315000Y-102600000D01*
D12*
X164530000Y-102150000D02*
G75*
G03*
X164530000Y-102150000I-100000J0D01*
G01*
D11*
%TO.C,U2*%
X167885000Y-87900000D02*
X167395000Y-87900000D01*
X167885000Y-89900000D02*
X167395000Y-89900000D01*
D12*
X169610000Y-89450000D02*
G75*
G03*
X169610000Y-89450000I-100000J0D01*
G01*
D11*
%TO.C,U6*%
X181500000Y-101150000D02*
X181010000Y-101150000D01*
X181500000Y-103150000D02*
X181010000Y-103150000D01*
D12*
X183225000Y-102700000D02*
G75*
G03*
X183225000Y-102700000I-100000J0D01*
G01*
D11*
%TO.C,U5*%
X174590000Y-101150000D02*
X174100000Y-101150000D01*
X174590000Y-103150000D02*
X174100000Y-103150000D01*
D12*
X176315000Y-102700000D02*
G75*
G03*
X176315000Y-102700000I-100000J0D01*
G01*
D13*
%TO.C,C1*%
X159660000Y-94087836D02*
X159660000Y-93872164D01*
X160380000Y-94087836D02*
X160380000Y-93872164D01*
D11*
%TO.C,U3*%
X174590000Y-90440000D02*
X174100000Y-90440000D01*
X174590000Y-92440000D02*
X174100000Y-92440000D01*
D12*
X176315000Y-91990000D02*
G75*
G03*
X176315000Y-91990000I-100000J0D01*
G01*
D11*
%TO.C,U7*%
X178960000Y-96070000D02*
X178470000Y-96070000D01*
X178960000Y-98070000D02*
X178470000Y-98070000D01*
D12*
X180685000Y-97620000D02*
G75*
G03*
X180685000Y-97620000I-100000J0D01*
G01*
D13*
%TO.C,R1*%
X159356359Y-98680000D02*
X159663641Y-98680000D01*
X159356359Y-99440000D02*
X159663641Y-99440000D01*
D11*
%TO.C,U4*%
X180585000Y-90440000D02*
X180095000Y-90440000D01*
X180585000Y-92440000D02*
X180095000Y-92440000D01*
D12*
X182310000Y-91990000D02*
G75*
G03*
X182310000Y-91990000I-100000J0D01*
G01*
D11*
%TO.C,U8*%
X171340000Y-96070000D02*
X170850000Y-96070000D01*
X171340000Y-98070000D02*
X170850000Y-98070000D01*
D12*
X173065000Y-97620000D02*
G75*
G03*
X173065000Y-97620000I-100000J0D01*
G01*
%TD*%
M02*
