%TF.GenerationSoftware,KiCad,Pcbnew,7.0.5*%
%TF.CreationDate,2023-06-07T10:32:37-06:00*%
%TF.ProjectId,ArmchairBarf,41726d63-6861-4697-9242-6172662e6b69,rev?*%
%TF.SameCoordinates,Original*%
%TF.FileFunction,Copper,L2,Bot*%
%TF.FilePolarity,Positive*%
%FSLAX46Y46*%
G04 Gerber Fmt 4.6, Leading zero omitted, Abs format (unit mm)*
G04 Created by KiCad (PCBNEW 7.0.5) date 2023-06-07 10:32:37*
%MOMM*%
%LPD*%
G01*
G04 APERTURE LIST*
G04 Aperture macros list*
%AMRoundRect*
0 Rectangle with rounded corners*
0 $1 Rounding radius*
0 $2 $3 $4 $5 $6 $7 $8 $9 X,Y pos of 4 corners*
0 Add a 4 corners polygon primitive as box body*
4,1,4,$2,$3,$4,$5,$6,$7,$8,$9,$2,$3,0*
0 Add four circle primitives for the rounded corners*
1,1,$1+$1,$2,$3*
1,1,$1+$1,$4,$5*
1,1,$1+$1,$6,$7*
1,1,$1+$1,$8,$9*
0 Add four rect primitives between the rounded corners*
20,1,$1+$1,$2,$3,$4,$5,0*
20,1,$1+$1,$4,$5,$6,$7,0*
20,1,$1+$1,$6,$7,$8,$9,0*
20,1,$1+$1,$8,$9,$2,$3,0*%
G04 Aperture macros list end*
%TA.AperFunction,ConnectorPad*%
%ADD10RoundRect,0.250000X-0.550000X0.550000X-0.550000X-0.550000X0.550000X-0.550000X0.550000X0.550000X0*%
%TD*%
%TA.AperFunction,ConnectorPad*%
%ADD11C,1.600000*%
%TD*%
%TA.AperFunction,ViaPad*%
%ADD12C,0.800000*%
%TD*%
%TA.AperFunction,Conductor*%
%ADD13C,0.250000*%
%TD*%
G04 APERTURE END LIST*
D10*
%TO.P,J1,1,Pin_1*%
%TO.N,Net-(J1-Pin_1)*%
X150655000Y-98000000D03*
D11*
%TO.P,J1,2,Pin_2*%
%TO.N,GND*%
X150655000Y-101600000D03*
%TO.P,J1,3,Pin_3*%
%TO.N,+5V*%
X150655000Y-105200000D03*
%TD*%
D10*
%TO.P,J2,1,Pin_1*%
%TO.N,Net-(J2-Pin_1)*%
X154305000Y-98000000D03*
D11*
%TO.P,J2,2,Pin_2*%
%TO.N,GND*%
X154305000Y-101600000D03*
%TO.P,J2,3,Pin_3*%
%TO.N,+5V*%
X154305000Y-105200000D03*
%TD*%
D12*
%TO.N,+5V*%
X150730909Y-99965066D03*
X156580004Y-99870200D03*
X152763055Y-99891704D03*
X154633897Y-99999224D03*
X148590000Y-99695000D03*
X151130000Y-103505000D03*
X157160586Y-103642240D03*
%TO.N,GND*%
X152400000Y-103505000D03*
X156922280Y-98207211D03*
%TO.N,Net-(J1-Pin_1)*%
X152400000Y-96520000D03*
%TO.N,Net-(J2-Pin_1)*%
X148590000Y-98695497D03*
%TD*%
D13*
%TO.N,+5V*%
X151130000Y-103505000D02*
X151130000Y-104725000D01*
X151130000Y-104725000D02*
X150655000Y-105200000D01*
%TO.N,GND*%
X153488055Y-100511945D02*
X153488055Y-99941945D01*
X156004491Y-99125000D02*
X156922280Y-98207211D01*
X152400000Y-101600000D02*
X153488055Y-100511945D01*
X150655000Y-101600000D02*
X152400000Y-101600000D01*
X152400000Y-101600000D02*
X154305000Y-101600000D01*
X150655000Y-101600000D02*
X152400000Y-103345000D01*
X154305000Y-99125000D02*
X156004491Y-99125000D01*
X152400000Y-103345000D02*
X152400000Y-103505000D01*
X153488055Y-99941945D02*
X154305000Y-99125000D01*
%TO.N,Net-(J1-Pin_1)*%
X152400000Y-96520000D02*
X152135000Y-96520000D01*
X152135000Y-96520000D02*
X150655000Y-98000000D01*
%TO.N,Net-(J2-Pin_1)*%
X149045305Y-99125000D02*
X148615802Y-98695497D01*
X148615802Y-98695497D02*
X148590000Y-98695497D01*
X154305000Y-98000000D02*
X153180000Y-99125000D01*
X153180000Y-99125000D02*
X149045305Y-99125000D01*
%TD*%
%TA.AperFunction,Conductor*%
%TO.N,+5V*%
G36*
X157732614Y-98761349D02*
G01*
X157790662Y-98800235D01*
X157803222Y-98818362D01*
X158522424Y-100083575D01*
X158651861Y-100311281D01*
X159349568Y-101538680D01*
X159365584Y-101606689D01*
X159349532Y-101661298D01*
X156109016Y-107354384D01*
X156058746Y-107402909D01*
X156001251Y-107417044D01*
X149453668Y-107417044D01*
X149386629Y-107397359D01*
X149346063Y-107354665D01*
X148730084Y-106279026D01*
X149929526Y-106279026D01*
X150002512Y-106330131D01*
X150002516Y-106330133D01*
X150208673Y-106426265D01*
X150208682Y-106426269D01*
X150428389Y-106485139D01*
X150428400Y-106485141D01*
X150654998Y-106504966D01*
X150655002Y-106504966D01*
X150881599Y-106485141D01*
X150881610Y-106485139D01*
X151101317Y-106426269D01*
X151101331Y-106426264D01*
X151307478Y-106330136D01*
X151380471Y-106279026D01*
X153579526Y-106279026D01*
X153652512Y-106330131D01*
X153652516Y-106330133D01*
X153858673Y-106426265D01*
X153858682Y-106426269D01*
X154078389Y-106485139D01*
X154078400Y-106485141D01*
X154304998Y-106504966D01*
X154305002Y-106504966D01*
X154531599Y-106485141D01*
X154531610Y-106485139D01*
X154751317Y-106426269D01*
X154751331Y-106426264D01*
X154957478Y-106330136D01*
X155030472Y-106279025D01*
X154305001Y-105553553D01*
X154305000Y-105553553D01*
X153579526Y-106279025D01*
X153579526Y-106279026D01*
X151380471Y-106279026D01*
X151380472Y-106279025D01*
X150655001Y-105553553D01*
X150655000Y-105553553D01*
X149929526Y-106279025D01*
X149929526Y-106279026D01*
X148730084Y-106279026D01*
X148112166Y-105200002D01*
X149350034Y-105200002D01*
X149369858Y-105426599D01*
X149369860Y-105426610D01*
X149428730Y-105646317D01*
X149428734Y-105646326D01*
X149524865Y-105852481D01*
X149524866Y-105852483D01*
X149575973Y-105925471D01*
X149575974Y-105925472D01*
X150301446Y-105200000D01*
X150301446Y-105199999D01*
X149575973Y-104474526D01*
X149575972Y-104474527D01*
X149524868Y-104547513D01*
X149428734Y-104753673D01*
X149428730Y-104753682D01*
X149369860Y-104973389D01*
X149369858Y-104973400D01*
X149350034Y-105199997D01*
X149350034Y-105200002D01*
X148112166Y-105200002D01*
X146085885Y-101661657D01*
X146069652Y-101593700D01*
X146085915Y-101538361D01*
X147530357Y-99019006D01*
X147580779Y-98970639D01*
X147649346Y-98957210D01*
X147714289Y-98982982D01*
X147754988Y-99039774D01*
X147755862Y-99042364D01*
X147762819Y-99063777D01*
X147762821Y-99063781D01*
X147857467Y-99227713D01*
X147984128Y-99368384D01*
X147984129Y-99368385D01*
X148137265Y-99479645D01*
X148137270Y-99479648D01*
X148310192Y-99556639D01*
X148310197Y-99556641D01*
X148495354Y-99595997D01*
X148584028Y-99595997D01*
X148651067Y-99615682D01*
X148668909Y-99629602D01*
X148674723Y-99635062D01*
X148692281Y-99644714D01*
X148708538Y-99655393D01*
X148724369Y-99667673D01*
X148744042Y-99676186D01*
X148767138Y-99686182D01*
X148772382Y-99688750D01*
X148813213Y-99711197D01*
X148825828Y-99714435D01*
X148832610Y-99716177D01*
X148851024Y-99722481D01*
X148869409Y-99730438D01*
X148915462Y-99737732D01*
X148921131Y-99738906D01*
X148966286Y-99750500D01*
X148986321Y-99750500D01*
X149005718Y-99752026D01*
X149025501Y-99755160D01*
X149071888Y-99750775D01*
X149077727Y-99750500D01*
X152738555Y-99750500D01*
X152805594Y-99770185D01*
X152851349Y-99822989D01*
X152862555Y-99874500D01*
X152862555Y-99882961D01*
X152861028Y-99902360D01*
X152857895Y-99922139D01*
X152857895Y-99922140D01*
X152862280Y-99968528D01*
X152862555Y-99974366D01*
X152862555Y-100201492D01*
X152842870Y-100268531D01*
X152826236Y-100289173D01*
X152177228Y-100938181D01*
X152115905Y-100971666D01*
X152089547Y-100974500D01*
X151869188Y-100974500D01*
X151802149Y-100954815D01*
X151767613Y-100921623D01*
X151655045Y-100760858D01*
X151494141Y-100599954D01*
X151307734Y-100469432D01*
X151307732Y-100469431D01*
X151101497Y-100373261D01*
X151101488Y-100373258D01*
X150881697Y-100314366D01*
X150881693Y-100314365D01*
X150881692Y-100314365D01*
X150881691Y-100314364D01*
X150881686Y-100314364D01*
X150655002Y-100294532D01*
X150654998Y-100294532D01*
X150428313Y-100314364D01*
X150428302Y-100314366D01*
X150208511Y-100373258D01*
X150208502Y-100373261D01*
X150002267Y-100469431D01*
X150002265Y-100469432D01*
X149815858Y-100599954D01*
X149654954Y-100760858D01*
X149524432Y-100947265D01*
X149524431Y-100947267D01*
X149428261Y-101153502D01*
X149428258Y-101153511D01*
X149369366Y-101373302D01*
X149369364Y-101373313D01*
X149349532Y-101599998D01*
X149349532Y-101600001D01*
X149369364Y-101826686D01*
X149369366Y-101826697D01*
X149428258Y-102046488D01*
X149428261Y-102046497D01*
X149524431Y-102252732D01*
X149524432Y-102252734D01*
X149654954Y-102439141D01*
X149815858Y-102600045D01*
X149815861Y-102600047D01*
X150002266Y-102730568D01*
X150208504Y-102826739D01*
X150208509Y-102826740D01*
X150208511Y-102826741D01*
X150228556Y-102832112D01*
X150428308Y-102885635D01*
X150585780Y-102899412D01*
X150654998Y-102905468D01*
X150655000Y-102905468D01*
X150655002Y-102905468D01*
X150724220Y-102899412D01*
X150881692Y-102885635D01*
X150950048Y-102867319D01*
X151019896Y-102868980D01*
X151069822Y-102899412D01*
X151469919Y-103299509D01*
X151503404Y-103360832D01*
X151505559Y-103400150D01*
X151494540Y-103505000D01*
X151514326Y-103693256D01*
X151514327Y-103693259D01*
X151572818Y-103873277D01*
X151572820Y-103873281D01*
X151572821Y-103873284D01*
X151596824Y-103914858D01*
X151663731Y-104030746D01*
X151680203Y-104098646D01*
X151657350Y-104164673D01*
X151602428Y-104207863D01*
X151532875Y-104214504D01*
X151485219Y-104194319D01*
X151307489Y-104069870D01*
X151307483Y-104069866D01*
X151101326Y-103973734D01*
X151101317Y-103973730D01*
X150881610Y-103914860D01*
X150881599Y-103914858D01*
X150655002Y-103895034D01*
X150654998Y-103895034D01*
X150428400Y-103914858D01*
X150428389Y-103914860D01*
X150208682Y-103973730D01*
X150208673Y-103973734D01*
X150002513Y-104069868D01*
X149929526Y-104120973D01*
X151734025Y-105925472D01*
X151785136Y-105852478D01*
X151881264Y-105646331D01*
X151881269Y-105646317D01*
X151940139Y-105426610D01*
X151940141Y-105426599D01*
X151959966Y-105200002D01*
X153000034Y-105200002D01*
X153019858Y-105426599D01*
X153019860Y-105426610D01*
X153078730Y-105646317D01*
X153078734Y-105646326D01*
X153174865Y-105852481D01*
X153174866Y-105852483D01*
X153225973Y-105925471D01*
X153225974Y-105925472D01*
X153951446Y-105200000D01*
X154658553Y-105200000D01*
X155384025Y-105925472D01*
X155435136Y-105852478D01*
X155531264Y-105646331D01*
X155531269Y-105646317D01*
X155590139Y-105426610D01*
X155590141Y-105426599D01*
X155609966Y-105200002D01*
X155609966Y-105199997D01*
X155590141Y-104973400D01*
X155590139Y-104973389D01*
X155531269Y-104753682D01*
X155531265Y-104753673D01*
X155435133Y-104547516D01*
X155435131Y-104547512D01*
X155384026Y-104474526D01*
X155384025Y-104474526D01*
X154658553Y-105199999D01*
X154658553Y-105200000D01*
X153951446Y-105200000D01*
X153951446Y-105199999D01*
X153225973Y-104474526D01*
X153225972Y-104474527D01*
X153174868Y-104547513D01*
X153078734Y-104753673D01*
X153078730Y-104753682D01*
X153019860Y-104973389D01*
X153019858Y-104973400D01*
X153000034Y-105199997D01*
X153000034Y-105200002D01*
X151959966Y-105200002D01*
X151959966Y-105199997D01*
X151940141Y-104973400D01*
X151940139Y-104973389D01*
X151881269Y-104753682D01*
X151881265Y-104753673D01*
X151785133Y-104547517D01*
X151674001Y-104388804D01*
X151651674Y-104322598D01*
X151668684Y-104254830D01*
X151719632Y-104207017D01*
X151788342Y-104194339D01*
X151848458Y-104217360D01*
X151947266Y-104289148D01*
X151947270Y-104289151D01*
X152120192Y-104366142D01*
X152120197Y-104366144D01*
X152305354Y-104405500D01*
X152305355Y-104405500D01*
X152494644Y-104405500D01*
X152494646Y-104405500D01*
X152679803Y-104366144D01*
X152852730Y-104289151D01*
X153005871Y-104177888D01*
X153057118Y-104120973D01*
X153579526Y-104120973D01*
X154305000Y-104846446D01*
X154305001Y-104846446D01*
X155030472Y-104120974D01*
X155030471Y-104120973D01*
X154957483Y-104069866D01*
X154957481Y-104069865D01*
X154751326Y-103973734D01*
X154751317Y-103973730D01*
X154531610Y-103914860D01*
X154531599Y-103914858D01*
X154305002Y-103895034D01*
X154304998Y-103895034D01*
X154078400Y-103914858D01*
X154078389Y-103914860D01*
X153858682Y-103973730D01*
X153858673Y-103973734D01*
X153652513Y-104069868D01*
X153579527Y-104120972D01*
X153579526Y-104120973D01*
X153057118Y-104120973D01*
X153132533Y-104037216D01*
X153227179Y-103873284D01*
X153285674Y-103693256D01*
X153305460Y-103505000D01*
X153285674Y-103316744D01*
X153227179Y-103136716D01*
X153132533Y-102972784D01*
X153005871Y-102832112D01*
X153005870Y-102832111D01*
X152852734Y-102720851D01*
X152852729Y-102720848D01*
X152679807Y-102643857D01*
X152679803Y-102643856D01*
X152593362Y-102625482D01*
X152531881Y-102592289D01*
X152531463Y-102591873D01*
X152376771Y-102437181D01*
X152343286Y-102375858D01*
X152348270Y-102306166D01*
X152390142Y-102250233D01*
X152455606Y-102225816D01*
X152464452Y-102225500D01*
X153090812Y-102225500D01*
X153157851Y-102245185D01*
X153192387Y-102278377D01*
X153304954Y-102439141D01*
X153465858Y-102600045D01*
X153465861Y-102600047D01*
X153652266Y-102730568D01*
X153858504Y-102826739D01*
X153858509Y-102826740D01*
X153858511Y-102826741D01*
X153878556Y-102832112D01*
X154078308Y-102885635D01*
X154235780Y-102899412D01*
X154304998Y-102905468D01*
X154305000Y-102905468D01*
X154305002Y-102905468D01*
X154374220Y-102899412D01*
X154531692Y-102885635D01*
X154751496Y-102826739D01*
X154957734Y-102730568D01*
X155144139Y-102600047D01*
X155305047Y-102439139D01*
X155435568Y-102252734D01*
X155531739Y-102046496D01*
X155590635Y-101826692D01*
X155610444Y-101600276D01*
X155610468Y-101600001D01*
X155610468Y-101599998D01*
X155590635Y-101373313D01*
X155590635Y-101373308D01*
X155531739Y-101153504D01*
X155435568Y-100947266D01*
X155305047Y-100760861D01*
X155305045Y-100760858D01*
X155144141Y-100599954D01*
X154957734Y-100469432D01*
X154957732Y-100469431D01*
X154751497Y-100373261D01*
X154751488Y-100373258D01*
X154531697Y-100314366D01*
X154531687Y-100314364D01*
X154307887Y-100294784D01*
X154242819Y-100269331D01*
X154201840Y-100212740D01*
X154197962Y-100142978D01*
X154231012Y-100083577D01*
X154527771Y-99786819D01*
X154589094Y-99753334D01*
X154615452Y-99750500D01*
X155921748Y-99750500D01*
X155937368Y-99752224D01*
X155937395Y-99751939D01*
X155945157Y-99752673D01*
X155945157Y-99752672D01*
X155945158Y-99752673D01*
X155948490Y-99752568D01*
X156013338Y-99750531D01*
X156015285Y-99750500D01*
X156043838Y-99750500D01*
X156043841Y-99750500D01*
X156050719Y-99749630D01*
X156056532Y-99749172D01*
X156103118Y-99747709D01*
X156122360Y-99742117D01*
X156141403Y-99738174D01*
X156161283Y-99735664D01*
X156204613Y-99718507D01*
X156210137Y-99716617D01*
X156213887Y-99715527D01*
X156254881Y-99703618D01*
X156272120Y-99693422D01*
X156289594Y-99684862D01*
X156308218Y-99677488D01*
X156308218Y-99677487D01*
X156308223Y-99677486D01*
X156345940Y-99650082D01*
X156350796Y-99646892D01*
X156390911Y-99623170D01*
X156405080Y-99608999D01*
X156419870Y-99596368D01*
X156436078Y-99584594D01*
X156465790Y-99548676D01*
X156469703Y-99544376D01*
X156870050Y-99144030D01*
X156931374Y-99110545D01*
X156957732Y-99107711D01*
X157016924Y-99107711D01*
X157016926Y-99107711D01*
X157202083Y-99068355D01*
X157375010Y-98991362D01*
X157528151Y-98880099D01*
X157603274Y-98796666D01*
X157662757Y-98760020D01*
X157732614Y-98761349D01*
G37*
%TD.AperFunction*%
%TD*%
M02*
