%TF.GenerationSoftware,KiCad,Pcbnew,7.0.5*%
%TF.CreationDate,2023-06-07T10:32:37-06:00*%
%TF.ProjectId,ArmchairBarf,41726d63-6861-4697-9242-6172662e6b69,rev?*%
%TF.SameCoordinates,Original*%
%TF.FileFunction,Legend,Top*%
%TF.FilePolarity,Positive*%
%FSLAX46Y46*%
G04 Gerber Fmt 4.6, Leading zero omitted, Abs format (unit mm)*
G04 Created by KiCad (PCBNEW 7.0.5) date 2023-06-07 10:32:37*
%MOMM*%
%LPD*%
G01*
G04 APERTURE LIST*
%ADD10C,0.127000*%
%ADD11C,0.200000*%
%ADD12C,0.120000*%
G04 APERTURE END LIST*
D10*
%TO.C,U1*%
X151020000Y-97340000D02*
X150530000Y-97340000D01*
X151020000Y-99340000D02*
X150530000Y-99340000D01*
D11*
X152745000Y-98890000D02*
G75*
G03*
X152745000Y-98890000I-100000J0D01*
G01*
D12*
%TO.C,C1*%
X149332836Y-103865000D02*
X149117164Y-103865000D01*
X149332836Y-103145000D02*
X149117164Y-103145000D01*
%TO.C,R1*%
X150773641Y-96900000D02*
X150466359Y-96900000D01*
X150773641Y-96140000D02*
X150466359Y-96140000D01*
D10*
%TO.C,U6*%
X148625000Y-102515000D02*
X149115000Y-102515000D01*
X148625000Y-100515000D02*
X149115000Y-100515000D01*
D11*
X147100000Y-100965000D02*
G75*
G03*
X147100000Y-100965000I-100000J0D01*
G01*
D10*
%TO.C,U4*%
X156245000Y-102515000D02*
X156735000Y-102515000D01*
X156245000Y-100515000D02*
X156735000Y-100515000D01*
D11*
X154720000Y-100965000D02*
G75*
G03*
X154720000Y-100965000I-100000J0D01*
G01*
D10*
%TO.C,U3*%
X154340000Y-106325000D02*
X154830000Y-106325000D01*
X154340000Y-104325000D02*
X154830000Y-104325000D01*
D11*
X152815000Y-104775000D02*
G75*
G03*
X152815000Y-104775000I-100000J0D01*
G01*
D10*
%TO.C,U2*%
X154905000Y-97340000D02*
X154415000Y-97340000D01*
X154905000Y-99340000D02*
X154415000Y-99340000D01*
D11*
X156630000Y-98890000D02*
G75*
G03*
X156630000Y-98890000I-100000J0D01*
G01*
D10*
%TO.C,U5*%
X152435000Y-102515000D02*
X152925000Y-102515000D01*
X152435000Y-100515000D02*
X152925000Y-100515000D01*
D11*
X150910000Y-100965000D02*
G75*
G03*
X150910000Y-100965000I-100000J0D01*
G01*
%TD*%
M02*
